<svg xmlns="http://www.w3.org/2000/svg" viewBox="0 0 499.76 479.81"><defs><style>.cls-1{fill:#a7a9ac;}.cls-1,.cls-2,.cls-3,.cls-4,.cls-6{stroke:#231f20;stroke-miterlimit:10;}.cls-2{fill:#bcbec0;}.cls-3{fill:#fff;}.cls-4{fill:none;}.cls-5,.cls-6{fill:#f1f2f2;}</style></defs><g id="Layer_2" data-name="Layer 2"><g id="Layer_1-2" data-name="Layer 1"><circle class="cls-1" cx="239.91" cy="239.91" r="239.41"/><circle class="cls-2" cx="239.76" cy="240.26" r="226.54"/><circle class="cls-2" cx="239.76" cy="240.26" r="232.82"/><path class="cls-3" d="M292.39,355.71S260.75,364,259,363s-21,18.32-21,18.32H212.62l-24.08-7.17-15.23-23.25S154,291.53,159.7,267.2s6.39-85.69,31.57-111.18,67.2-46.2,78.53-49.47,41.53.66,41.53.66"/><path class="cls-4" d="M211.59,368.63a11.39,11.39,0,0,1-6.27-13.95c2.75-10.27-8.5-18.92-8.5-18.92"/><path class="cls-5" d="M191,272.4"/><path class="cls-5" d="M238.63,268c-.12.19-.25.41-.37.63"/><path class="cls-5" d="M257,281.81l.56,0a19,19,0,0,1,3.18.32c1,.18,2,.4,3,.65a10,10,0,0,0,.33,2"/><path class="cls-5" d="M205.59,285.74A10.75,10.75,0,0,0,212,283.8a48.29,48.29,0,0,1,6.44,1.17"/><line class="cls-6" x1="244.64" y1="290.12" x2="244.64" y2="290.12"/><path class="cls-4" d="M187.85,196.89s6.4-12.24,14.42-16.9,18.29-14.29,18.29-14.29"/><path class="cls-6" d="M498.58,253.88s-30.6-18.37-44.72-14,3.33,1.58-38.34,6.09-205,11.82-205,11.82-22-11.82-31,10.7c-7.89,4.51-16.33,10.14-12.39,20.84l5.63,6.76h5.07l16.89,10.13s-5.28,15.69,3.38,19.15c9,2.81,23.09,8.44,23.09,8.44l10.7,4.51,12.39,3.38,10.13,3.38L268,348.49l6.19,2.25,25.34,7.88,8.45,2.25,27.59,5.64,24.21,5.63s-16.33,14.07-3.37,30.4c4.5,5.64,9.57,3.95,9.57,3.95s15.2-12.39,18.58-13.52a51.57,51.57,0,0,1,8.45-1.69l16.33-.56,11.82-2.82s16.26-4.5,32.67-3.94c16.33,0,32.09-9,32.09-9l7.32-7.32h4.51"/><path class="cls-6" d="M499.43,74.81,480.85,91.7S466.2,117,414.4,83.26c-18-10.14-27-13-27-13S364.28,72.56,348,69.18s-23.65-4.51-23.65-4.51l-8.45-.56s-14.64,0-20.27-3.38-16.89-12.39-16.89-12.39l-6.76-2.81s-17.46,10.7-6.2,25.34c11.27,15.76,25.34,27.59,40.55,30.41s5.05,3.44,5.05,3.44-12,10-20.82,16.27c-10.7,7.32-29.28,20.27-33.22,25.9-6.76,5.63-18,18-18,18l-14.08,15.77s-11.26,12.95-11.26,15.2c-5.07,8.45-34.92,37.73,1.69,42.8-.57,7.32-11.83,33.22,0,35.47-.7,3.15-1,11.91,5.91,15,4.21,1.92,11.11,1.71,22.24-3.21,4.51.56,13.52,9.57,32.66-4.51,15.21-16.89,149.79-36,149.79-36s42.8-9.57,60.82-25.9c9-7.09,12.39-8.45,12.39-8.45"/><line class="cls-4" x1="220.12" y1="298.93" x2="221.53" y2="289.19"/><path class="cls-4" d="M194.78,306.25s14.64-15.2,49,0c13.52,2.25,34.92,6.76,42.24,7.32s27.59-1.69,33.78,0c8.45,3.38,19.15,9.57,23.09,15.77"/><path class="cls-4" d="M243.77,306.25s6.76,5.63,5.63,23.09"/><path class="cls-4" d="M274.18,314.7s.44,12.49,5,19.48"/><path class="cls-4" d="M286,313.57s3.37,11.83,2.81,17.46"/><path class="cls-4" d="M297.77,315.4s5.5,22.48.06,31.4"/><path class="cls-4" d="M179.58,268.52s18.58,1.69,23.08,3.94l11.27,4"/><path class="cls-4" d="M320.07,308.22a75.31,75.31,0,0,0-3.94-7c-1.92-2.54-46.45-3.66-46.45-3.66s-6.2-.84-10.42-3.09c-4.51-2.82-18.3-6.76-18.3-6.76"/><path class="cls-4" d="M259.26,294.43s2.25,9.57,5.07,11.26"/><path class="cls-4" d="M269.68,297.52a16,16,0,0,1,3.94,9.86"/><path class="cls-4" d="M309.94,301.75s3.66,4.5,3.94,6.19"/><path class="cls-4" d="M246.59,286.26l-1.41-3.38s9-12.39,10.14-16.33a38,38,0,0,1,7.6-7"/><path class="cls-4" d="M215.62,274.15l5.35,2s19.14-.28,24.77-32.94a12.94,12.94,0,0,1,5.35-4.5"/><polyline class="cls-4" points="245.74 243.18 244.34 233.33 242.08 227.98 236.17 224.04"/><path class="cls-4" d="M215.62,238.68s20.83-10.42,27.59-26.19c4.22-3.38,8.45-6.47,8.45-6.47l10.13-11.55,5.91-5.63,7.33-7.32s21.39-13.51,23.08-16.33,3.1-8.45,3.1-8.45l.85-7.32v-6.19l-2-4.51"/><polyline class="cls-4" points="243.21 212.49 243.49 204.04 240.68 197.01 237.86 190.81"/><polyline class="cls-4" points="268.83 183.21 264.33 171.95 260.38 165.19"/><path class="cls-4" d="M276.71,177.58s-2.53-19.15-11.82-23.65"/><polyline class="cls-4" points="311.91 154.21 315.01 146.33 316.98 131.4"/><path class="cls-4" d="M342,163.22s-11.27-14.92-12.11-23.93"/><polyline class="cls-4" points="334.15 132.53 331.9 124.36 330.77 112.54 331.62 110"/><polyline class="cls-4" points="328.52 110 332.46 118.17 335.28 128.59"/><path class="cls-4" d="M340.07,126.9s-3.66,28.44,32.09,43.08c11.55,6.47,18,9.29,18,9.29l11,4.22,9.86,3.66"/><path class="cls-4" d="M389.06,187.62s14.64.56,18.2,2.25,16.52,5.82,16.52,5.82l6,1.69,11.07-1.69s23.84-7.32,29.47-17.27"/><polyline class="cls-4" points="429.79 197.38 437.49 198.88 451 199.82 461.51 196.82"/><path class="cls-4" d="M419.47,213.34s14.64,9.95,22.71,10.88,18.21,2.07,18.21,2.07h12.95"/><path class="cls-4" d="M447.06,161.81s7.6-3.38,10.42-5.07"/><path class="cls-4" d="M441.43,172.23c8.44-3.66,18-8.45,21.4-13.23"/><line class="cls-4" x1="401.73" y1="120.99" x2="414.4" y2="108.88"/><path class="cls-4" d="M366.53,118.73s6.89,2.58,9.29,2.54c5.28-.1,14.36-4.51,19.71-7.61"/><path class="cls-4" d="M314.73,103.53s19.42,2.81,20.27,3.38,10.13,6.47,14.64,5.63c0,0-10.7,8.16-3.1,25.9"/><path class="cls-4" d="M349.64,112.54s9.57,8.45,14.92,10.13c0,0,3.38,10.7,6.76,13.8l8.16,16.33,4.79,5.91,9,10.7"/><line class="cls-4" x1="369.35" y1="125.49" x2="364.56" y2="122.67"/><path class="cls-4" d="M312.47,101.56s7.6-8.17,9-16"/><path class="cls-4" d="M308,100.71l1.69-4.22s4.78-2.25,4.78-3.66"/><polygon class="cls-4" points="278.69 48.34 277.84 50.03 279.81 52.85 286.01 57.07 290.79 60.45 295.58 60.73 278.69 48.34"/><path class="cls-4" d="M334.72,305.69s28.72-3.38,31.25-2a92.61,92.61,0,0,1,9.57-7.6l5.35-7"/><path class="cls-4" d="M380.94,328.59s9-29.1,15.16-32.47L397,295c5-6,11.45-14.94,11.45-14.94l3.95-5.63"/><path class="cls-4" d="M402,296.68s40.26-11.55,45.33-15.77c7-3.94,18.86-9.85,18.86-9.85s16.05-6.76,22.81-5.63"/><path class="cls-4" d="M447.06,329.34l4.5-.28s8.45-5.63,15.49-3.38"/><path class="cls-4" d="M359.77,372.14s11-14.64,17.46-16.05,57.16-15.21,61.1-22.81l3.38-3.38,3.38-1.69"/><polyline class="cls-4" points="437.49 331.31 437.49 326.24 437.49 321.17"/><path class="cls-4" d="M437.49,326.24s3.94.11,4.64-11.21a81.39,81.39,0,0,1,3.8-20"/><path class="cls-4" d="M391.93,337s8.67-22.6,14.58-26.83,14.36-10.13,14.36-10.13l9.29-5.92,5.92-3.37"/><path class="cls-4" d="M406.82,327.43c-.88,6.63,2.88,13.1,4.24,17.16a.56.56,0,0,1-1,.47c-3-5-7.64-12.76-8-14.82"/><line class="cls-4" x1="422.56" y1="329.06" x2="426.74" y2="340.68"/><line class="cls-4" x1="428.48" y1="328.49" x2="428.48" y2="338.35"/><path class="cls-4" d="M407,349.11s8.85,4.44,9.69,10.64"/><path class="cls-4" d="M370.19,402.54l4.51-7.6,1.12-4.22,6.2-4.79,4.78-1.41,2.82.85s-.28,5.07-1.41,5.91a16.82,16.82,0,0,1-3.66,1.69l-7,4.51Z"/><path class="cls-4" d="M411,390.72s7.32-5.91,7.88-10.42"/><path class="cls-4" d="M421.15,387.9s5.07-5.35,2.82-11"/><polyline class="cls-4" points="429.04 382.55 429.32 375.51 427.91 373.26"/><path class="cls-4" d="M396.94,351s8.45,3.94,9.86,6.76"/><path class="cls-3" d="M254.47,202.92s-15.77,25.9,4.51,50.4S285.72,282,285.72,282l10.14,4.22s11.83,8.45,19.15,9.57,20.83.29,20.83.29h12.67l9.86.56s33.78-15.77,38-19.43,15.2-19.43,17.45-31.82c.57-13.51-4.78-35.47-8.44-39.7S395,193.06,395,193.06l-17.56-15.55-17.35-8.38-11.27-4.5-13.23-2.26-12.39-2.25-11.84,1-11,3.21-11.55,8.72-7,2.82L275,181.52l-7.33,7.32Z"/></g></g></svg>