<svg xmlns="http://www.w3.org/2000/svg" viewBox="0 0 560.71 482.48"><defs><style>.cls-1{fill:#a7a9ac;}.cls-1,.cls-2,.cls-3,.cls-4,.cls-5{stroke:#231f20;stroke-miterlimit:10;}.cls-2{fill:#bcbec0;}.cls-3{fill:#f1f2f2;}.cls-4{fill:none;}.cls-5{fill:#fff;}</style></defs><g id="Layer_2" data-name="Layer 2"><g id="Layer_1-2" data-name="Layer 1"><circle class="cls-1" cx="241.24" cy="241.24" r="240.74"/><circle class="cls-2" cx="241.1" cy="241.6" r="227.8"/><circle class="cls-2" cx="239.1" cy="240.6" r="234.12"/><path class="cls-3" d="M560.71,260.16c-47.56-.1-94.49-.3-99.79-.68a53.85,53.85,0,0,1-19.82-5.55s-3.17-12.69-7.93-18.24-33.31-22.2-43.61-30.13a234.53,234.53,0,0,1-19.83-17.45l-15.86-14.27s-13.48-11.1-20.61-14.27-15.07-11.1-15.07-11.1L297.58,139l-7.93,3.17-9.52,7.93,4,7.93,11.1,6.35s2.77,3.17,6.14,6.74,7.34,7.53,9.72,9.12c3.11,2.07,12.66,11.94,20,19l-39-29.28,1.58,7.93-19,1.58-3.17-12.68-11.1,3.17.79,11.1-2.38,6.34s4,2.38,8.72,8.72,10.31,13.48,15.86,15.86c1.6.69,4.18,2.69,7.11,5.22,7.24,6.28,17.37,11.1,19.06,12.23,2.38,1.58,11.1,7.93,11.1,7.93L273,209.52l-13.48-8.72-18.23-11.89L229.38,181l-20.61-19-7.14-7.14L188.94,154,183.39,162l6.35,8.72,17.44,16.65s11.1,17.45,14.27,19,21.41,15.86,21.41,15.86l7.93,10.31,23,22.2,14.27,12.69,3.17,11.89S260.31,269,251.59,269s-17.45-10.3-17.45-10.3-1.59,9.51-11.1,0-22.2-14.28-22.2-14.28l-17.45-11.1-14.27-4,4,7.13L182.6,242s13.48,2.38,15.86,8.73,3.17,15.86,3.17,15.86l15.07,9.51s14.27.79,17.44,5.55-4,12.69-4,12.69h-11.9l15.07,9.51,30.13,14.28,23,11.1s7.14,11.89,10.31,14.27l3.17,2.38-22.2,1.58-19,6.35-11.89,6.34-4,12.69,4.76,7.13,18.24,4s7.13,2.38,22.2,3.17a162.85,162.85,0,0,0,27-.79l18.24,13.48,41.23,1.58S388,399.83,391.14,399s10.31-8.73,10.31-8.73,129.43,17.88,152,23.07"/><path class="cls-3" d="M296,326.09s12.69-19,17.44-23.79"/><path class="cls-3" d="M290.44,320.53c6.34-6.34,9.51-12.68,9.51-15.85"/><path class="cls-3" d="M306.3,277.72s15.86-21.41,19-22.21"/><path class="cls-3" d="M322.16,248.38s12.68-7.93,19.82-5.55"/><line class="cls-3" x1="354.67" y1="241.24" x2="352.29" y2="231.73"/><path class="cls-3" d="M367.35,224.59c6.35.79,15.86-2.38,15.86-2.38"/><line class="cls-3" x1="334.84" y1="201.59" x2="347.53" y2="191.29"/><path class="cls-3" d="M334.84,192.87s3.18-7.13,6.35-7.93"/><path class="cls-3" d="M250,304.68a12.24,12.24,0,0,0,4-10.31"/><path class="cls-3" d="M261.89,215.87c0,3.17-9.51,8.72-9.51,8.72"/><line class="cls-3" x1="257.93" y1="229.35" x2="267.44" y2="222.21"/><path class="cls-3" d="M289.65,208.73s12.68-5.55,14.27-8.72"/><path class="cls-3" d="M289.65,202.39s4-7.93,8.72-9.52"/><path class="cls-3" d="M301.54,357s3.17,15.07,11.1,22.2"/><path class="cls-4" d="M290.44,380.8s-7.14-4-7.14-17.45.8-8.72.8-8.72"/><polygon class="cls-4" points="273 380.8 279.34 378.42 275.37 367.32 268.24 360.97 257.14 360.97 252.38 366.52 250.79 373.66 253.96 380 260.31 380 273 380.8"/><path class="cls-5" d="M398.89,211.29,408.41,197l-6.34-39.64-21.41-42.82-2.38-29.34L356.87,73.32S325.94,63,303.74,66.18s-12.69,3.17-22.2,3.17-39.65,7.14-39.65,7.14l-20.61,6.34L189.56,72.52s-19-10.3-28.55-6.34-7.13,8.72-15.86,12.69-23,6.34-23,6.34l-5.55,15.86.79,16.65-.79,13.48L95.2,143.1,82.51,158.16a390.9,390.9,0,0,1-2.38,39.65S73.79,224,77,243s16.65,50,26.17,65l10.31,20.61,7.13,15.07s14.28,4.76,22.21,21.41c6.34,19,35.68,41.23,35.68,41.23l15.86,2.38,29.33,7.93,35.69,3.17,42-10.31L318.81,396l-3.17-9.51-32.51,2.37-16.66-4.75-18.23-4-4.76-13.48,6.34-11.89,38.06-7.14,12.69-1.58-13.48-16.66L234,304.06l-15.06-9.51h11.89l4-12.69-17.45-5.55-15.06-9.52-3.18-15.86-15.85-8.72-9.52-5.55-4-7.13,14.27,4,27,14.27,12.68,11.1,5.56,4,5.55-4,5.55,6.35,11.89,4,19,4,14.27,4,6.35,2.38-3.17-11.89L264.09,247,251.41,232.7l-7.93-10.31-11.1-7.93-10.31-7.93s-7.93-12.69-14.27-19a105,105,0,0,1-10.31-11.89L184,162.13l5.55-7.93,12.69.79,14.27,14.27,25.37,19.83L260.13,201l13.48,8.72,3.28,2.05L299,225.56l-30.92-29.34-8.72-8.72,2.38-6.34s-2.12-8.66-.8-11.11,8.74-4.82,11.1-3.17c2.68,1.88.74,10.51,3.18,12.69,3.55,3.19,16.16,2.23,19-1.59,1.21-1.61-1.59-7.93-1.59-7.93l12.69,11.11,15.06,9.51-8.72-10.31L291.85,159l-11.1-8.72,17.44-11.1,26.17,13.48,21.41,19,8.72,2.38,20.62,20.62Z"/><path class="cls-5" d="M256.92,336.73l-11.31-1.26s-26.4,0-28.92,3.77,6.29-8.8-7.54-13.83-22.63-20.11-22.63-20.11l-10.06-21.38-6.29-11.31"/><path class="cls-4" d="M366.3,168.26s-17.24-8.92-25.14-8.8-16.8-6.85-16.8-6.85,1.71,11.87,3-10.76l1.26-22.63"/><path class="cls-4" d="M128.68,214.77s11.32,2.52,13.83-8.8A110.16,110.16,0,0,0,145,184.6s-2.52,11.32,11.31,11.32,31.44,2.51,31.44,2.51l5,12.57"/><path class="cls-4" d="M113.6,287.69s18.86-11.31,13.83-21.37-13.83-20.11-13.83-20.11L101,237.4s16.34,2.52,7.54-8.8-8.8-25.14-8.8-25.14"/><path class="cls-4" d="M230.52,144.37s3.77,17.6,8.8,25.14,20,18,20,18"/><path class="cls-4" d="M216.69,136.83s-18.86-23.89-31.43-23.89-36.46,8.8-36.46,8.8l-10.06,2.51"/><path class="cls-5" d="M142.51,389.53c-3.42,1.61-3,11.75-1.25,15.09,1.52,2.85,11.31,6.28,11.31,6.28l10.06-2.51,27.66,21.37s21.73-.76,28.92,0c4.47.48,17.6,3.77,17.6,3.77s-3-7.31-5-8.8c-5.2-3.74-25.15-5-25.15-5l-28.17-13.35S151.49,385.31,142.51,389.53Z"/><path class="cls-5" d="M309.73,421s14.14,1.37,13.83,5c-.77,8.91-35.21,6.29-35.21,6.29s-21.13,8-22.63,2.51c-1.81-6.65,25.15-11.31,25.15-11.31Z"/></g></g></svg>