<svg xmlns="http://www.w3.org/2000/svg" xmlns:xlink="http://www.w3.org/1999/xlink" viewBox="0 0 508.66 491.72"><defs><style>.cls-1{fill:#a7a9ac;}.cls-1,.cls-10,.cls-11,.cls-12,.cls-13,.cls-2,.cls-3,.cls-4,.cls-5,.cls-6,.cls-7,.cls-8,.cls-9{stroke:#231f20;stroke-miterlimit:10;}.cls-2{fill:#bcbec0;}.cls-12,.cls-3{fill:#fff;}.cls-13,.cls-4{fill:none;}.cls-5{fill:#f1f2f2;}.cls-6{fill:url(#linear-gradient);}.cls-7{fill:url(#linear-gradient-2);}.cls-8{fill:url(#linear-gradient-3);}.cls-9{fill:url(#linear-gradient-4);}.cls-10{fill:url(#linear-gradient-5);}.cls-11{fill:url(#linear-gradient-6);}.cls-12,.cls-13{stroke-width:0.5px;}</style><linearGradient id="linear-gradient" x1="83.71" y1="216.77" x2="167.92" y2="216.77" gradientUnits="userSpaceOnUse"><stop offset="0" stop-color="#fff"/><stop offset="1"/></linearGradient><linearGradient id="linear-gradient-2" x1="266.74" y1="358.72" x2="285.65" y2="358.72" xlink:href="#linear-gradient"/><linearGradient id="linear-gradient-3" x1="293.38" y1="379.86" x2="320.88" y2="379.86" xlink:href="#linear-gradient"/><linearGradient id="linear-gradient-4" x1="315.72" y1="372.96" x2="346.66" y2="372.96" xlink:href="#linear-gradient"/><linearGradient id="linear-gradient-5" x1="213.46" y1="400.62" x2="216.9" y2="400.62" xlink:href="#linear-gradient"/><linearGradient id="linear-gradient-6" x1="233.23" y1="391.7" x2="237.62" y2="391.7" xlink:href="#linear-gradient"/></defs><g id="Layer_2" data-name="Layer 2"><g id="Layer_1-2" data-name="Layer 1"><circle class="cls-1" cx="239.91" cy="251.81" r="239.41"/><ellipse class="cls-2" cx="239.67" cy="252.14" rx="230.74" ry="232.98"/><path class="cls-3" d="M278.85,359.67S247.21,368,245.48,367s-21,18.32-21,18.32H199.07L175,378.15l-15.23-23.24s-19.29-59.42-13.62-83.74,6.4-85.69,31.57-111.19,67.21-46.2,78.54-49.46,41.52.66,41.52.66"/><path class="cls-4" d="M220.05,372.6a11.4,11.4,0,0,1-6.27-14c2.75-10.28-8.51-18.92-8.51-18.92"/><path class="cls-4" d="M196.31,200.85s6.4-12.24,14.42-16.9S229,169.66,229,169.66"/><path class="cls-5" d="M505.65,418.5a1.72,1.72,0,0,1-2.16,1.63l-64-17.52-.18-.05-30.61-12a1.6,1.6,0,0,0-.48-.11c-1.8-.14-13-1-16.94-1.71-17.41-3-34.28,8.57-47.16,9.49a.76.76,0,0,0-.21,0c-7.57,1.69-32.3,7.29-34.16,7.71l-.23,0c-1.73.15-22.17,1.88-24.71,2.42C268.61,411.9,251.19,414.92,236,424a1.73,1.73,0,0,0-.43.38c-5.7,6.76-12,1.81-27.84,9.27a54.39,54.39,0,0,1-13.86,4.26,1.62,1.62,0,0,0-.42.15l-9.91,5a1.57,1.57,0,0,1-.43.15l-7.51,1.51a1.73,1.73,0,0,1-1.66-.6c-1.59-1.9-4.53-7.8.8-22.53,6-15.53,56.72-36.24,73.05-42.28,13.55-5,14.67-13,14.66-15.57a1.72,1.72,0,0,0-.6-1.3l-29.41-25.31a1.44,1.44,0,0,0-.25-.18c-1.73-1-20.53-12.12-21.35-14.59s-49-40.56-55.86-45.74c-6.64-5-23.72-14.84-24.86-15.5A.5.5,0,0,1,130,261l-17.13-12L99.14,239.5c-25-15.21-15.28-34.43-12.62-38.79a1.72,1.72,0,0,0,0-1.85L76.8,184.27a23.69,23.69,0,0,1,.36-27.83,1.67,1.67,0,0,1,1.28-.69l15.2-.76a1.71,1.71,0,0,0,1.55-1.22l2.08-7a1.71,1.71,0,0,1,.56-.83l8.41-6.91a1.72,1.72,0,0,1,1.45-.35l18.77,4.1a2.21,2.21,0,0,0,.37,0h10.84l.29,0,109.7,18.94a1.28,1.28,0,0,1,.28.07c3.82,1.38,85.9,31.08,90.1,33.61s76.48,47.46,80.77,52.63,37,19,44.29,25c7.08,5.78,37,14.15,39,14.7l.21,0,4.4.64a1.72,1.72,0,0,1,1.48,1.73"/><path class="cls-6" d="M83.71,195.63s13.94,8.23,20.19,9.42a1.74,1.74,0,0,1,.77.35c9.42,7.67,22.1,15.26,30.6,16.12s23.2,10.35,23.2,10.35l9.45,6"/><path class="cls-4" d="M316.58,200.81s6-6.91,10.32-8.63a13.61,13.61,0,0,1,7.73-.87"/><path class="cls-7" d="M266.74,352.68c2.58.86,14.61,6.9,18.91,12.08"/><path class="cls-8" d="M293.38,369.08c2.58,1.72,11.17,7.76,15.47,12.94s12,8.63,12,8.63"/><path class="cls-9" d="M346.66,386.33c-1.72-2.58-28.36-24.16-30.94-26.75"/><path class="cls-10" d="M213.46,395.92a29.45,29.45,0,0,1,3.44,9.4"/><path class="cls-11" d="M233.23,385.29s5.16,4.18,4.3,12.81"/><path class="cls-4" d="M178.23,435c1.3.88,1.66,6.07,1.66,6.07s3.1,2.82,10.15-1.3c.1-.06,3.75-1.83,3.85-1.87l7.77-4c1.17-.41-3.14-4.2-4.3-4.67l-9.59,3.11L178.23,435h0"/><path class="cls-4" d="M381.07,380.42c3.44-.87,6.88-10.36,6.88-15.54"/><path class="cls-4" d="M394,381.28c3.44-2.59,3.44-.86,8.6-12.08s10.31-25,10.31-25l7.73-18.12s7.74-19,9.46-20.71,10.31-8.63,10.31-8.63,3.44-.86,7.73-14.67"/><path class="cls-4" d="M366.47,256.16l14.41-2.42a1.75,1.75,0,0,0,1.2-.73c.52-.81,2.75-2.28,11.88-2.9"/><path class="cls-4" d="M405.1,386.34s11.21-12,12.07-18.87,4.29-13.8,8.59-20.71,10.31-18.12,10.31-18.12"/><path class="cls-4" d="M443,307.93s6.87.86,13.74-6.9"/><path class="cls-3" d="M164.33,214.59c1.77,5.28.8,44.21,17.85,63.36,6.53,8.89,4.92,12.47,12.12,17.93a85,85,0,0,0,31.9,14.89,177.57,177.57,0,0,0,40.17,4.59s24.49-2.34,31.29-6.52c5.69-3.5,16.66-20.88,16.66-20.88l14.49-30.34L330,229.3l-20.74-38.55c-10.21-10.43-38.88-25.83-38.88-25.83l-51.87-4.38L172.3,193.22Z"/><line class="cls-12" x1="316.8" y1="240.15" x2="329.97" y2="229.3"/><path class="cls-13" d="M219.3,167.18s3.76,6.39,4.13,9"/><path class="cls-5" d="M508.16.5s-90.92.84-109.5,7.6S285.47,44.42,285.47,44.42l-28.72,16-27,14.36-9.29,1.69-14.36,4.22L185.8,90,169.75,95.1l-14.36,5.07L141,105.24l-5.91,4.22s-4.23,8.45,4.22,11.83a33.61,33.61,0,0,0,15.21,2.53l11.82-.84s-17.74,6.76-21.12,11.82-21.11,11-21.11,11l-11.83,5.92s-10,2.17-12.67,4.22a18.39,18.39,0,0,0-3.06,3.34c-1.47,2-2.75,4.34-2.85,6-.12,1.89,1.9,5.58,3.38,6.76s6.75,1.69,6.75,1.69l-17.73,5.07a4.77,4.77,0,0,0-1.91.71C78,183.33,78.08,201.06,101.14,205c9,1.53,11.17-.94,11.17-.94s3.38,21.11,22,20.27,31.26-.84,38-3.38c10.14-1.69,49-15.2,54.91-16.05l13.51-2.53L277,188.86l14.66-4.44s18.29-3.16,22.51-5.69c10.14,0,32.1-3.38,32.1-3.38s8.44-4.22,5.07,6.76-25.34,38-26.19,42.23-7.6,26.18-7.6,32.94a79.74,79.74,0,0,0-1.69,15.21S319.57,302.86,330,302s10.4-6.74,10.4-6.74l4.23-17.74,1.69-7.6,15.2-22,6.76-13.51,35.48-45.62,16.89-13.51s28.72-21.12,40.54-39.7S484,106.08,484,106.08l11-9.29,12.21-8.55"/><path class="cls-4" d="M83.38,180.28s.78,16.56,7.16,16.56a22.43,22.43,0,0,0,11.64-3.75l2.25-5.26s3-5.25,1.5-7.13a16,16,0,0,0-4.51-3.38Z"/><path class="cls-4" d="M97.42,160.67s2.5,10.27,6.63,10.64a11.19,11.19,0,0,0,7.14-1.87l4.12-1.88,5.26-5.26s.38-8.26-1.88-9.38-6.52,1.45-6.52,1.45l-6.9,1.79Z"/><path class="cls-4" d="M136.72,110.33l2.62,8,3.19.8a4.69,4.69,0,0,0,4.7-1.51l4.5-5.3,2.63-4.5.14-5.1-12.62,3.88Z"/><path class="cls-4" d="M113.16,205.48l3.28-5.64L130,196.09h3.75s16.14-6,19.52-6,3,.75,8.26-1.5,24-11.26,24-11.26l8.63-4.51,6.38-3s9.39-7.13,17.65-9,23.27-7.51,23.27-7.51l9.39-4.5L259.1,145l5.68-2.93,5.21-2.7"/><line class="cls-4" x1="266.98" y1="135.65" x2="264.78" y2="142.1"/><path class="cls-4" d="M116.44,199.84l-.75,5.64s3.38,7.88,5.26,8.25,5.25.76,5.25.76l2.58-1.69s1.55-2.44,2.68-2.44,3-2.26,3-2.26l2.25-4.88s1.37-4.08.75-5.25c-.48-.93-3.75-1.88-3.75-1.88"/><path class="cls-4" d="M155.48,193.46s-.81,6.36,0,8.26c1.08,2.5,7.89,7.51,7.89,7.51"/><path class="cls-4" d="M164.49,201.35s1.51-.75,0-5.64"/><path class="cls-4" d="M130.33,168.68A14.28,14.28,0,0,1,133,178.82"/><path class="cls-4" d="M141.59,143.91c.38,1.12,2.63,7.51,2.63,7.51"/><path class="cls-4" d="M147.23,136.77a77.48,77.48,0,0,1,3,7.51"/><path class="cls-4" d="M143.47,140.53a17.46,17.46,0,0,1,2.63,8.26"/><path class="cls-4" d="M188.52,118.38s.38,6,2.63,7.51"/><path class="cls-4" d="M200.91,112.37a10.1,10.1,0,0,0,2.63,2.26s3.75,3.75,3,7.5"/><path class="cls-4" d="M204.29,107.87s3.75,2.63,4.5,6.38"/><path class="cls-4" d="M176.13,108.24s-3.38-4.5-3.38-8.63"/><line class="cls-4" x1="177.26" y1="103.36" x2="176.51" y2="96.61"/><path class="cls-4" d="M179.89,101.11a28,28,0,0,0-.75-4.13"/><line class="cls-4" x1="192.27" y1="112.75" x2="195.65" y2="121.76"/><path class="cls-4" d="M103,174.5l7.79-1.31,8.63-2.25,5.64-2.26,8.63-3.75,6.76-2.25,9.38-5.26,10.89-4.5,9.39-4.51,8.25-3.75,6-2.63,6.76-4.88,5.25-2.25,6.76-3.76s-2.63.75-3,1.88"/><path class="cls-4" d="M209.17,128.52l-6,2.62Z"/><path class="cls-4" d="M214.42,126.26l-5.25,2.26,16.52-7.14s27.4-12.39,33-22.52"/><path class="cls-4" d="M165.53,123.82s18.49-7.32,22.62-9.19a56.06,56.06,0,0,0,8.25-4.88l4.88-1.51,8.64-3.75,15.77-6s30-11.26,37.16-23.65"/><path class="cls-4" d="M345.44,176.19l15.21-3.38h0s6.77-6.87,8.44-5.06c2.47,2.67-8.44,11.82-8.44,11.82"/><path class="cls-4" d="M198.28,176.19a28.17,28.17,0,0,0,7.88,13.14"/><path class="cls-4" d="M202.79,173.19c0,2.63,2.25,11.26,4.5,13.14s5.26,4.88,5.26,4.88"/><path class="cls-4" d="M221.93,164.56s3.76,1.5,4.51,5.25,1.5,9.76,1.5,9.76"/><path class="cls-4" d="M227.56,164.18c.75,1.13,3.38,9.39,3.38,13.89"/><path class="cls-4" d="M232.82,163.05l2.63,3s1.87,5.25,1.5,8.26"/><path class="cls-4" d="M209.92,169.44c-.38,1.5.75,6.38.75,6.38"/><path class="cls-4" d="M217.43,172.06c1.12.38,1.5,6,1.5,6"/><path class="cls-4" d="M179.51,151.79s1.88,8.64,5.26,12"/><path class="cls-4" d="M186.27,144.66a43.31,43.31,0,0,1,0,7.13"/><line class="cls-4" x1="193.03" y1="140.53" x2="194.9" y2="145.41"/><line class="cls-4" x1="189.65" y1="145.03" x2="193.4" y2="153.29"/><path class="cls-4" d="M196,163.43s5.25-2.63,4.13-17.65"/><path class="cls-4" d="M201.28,137.15s8.64,5.26,7.89,14.64"/><line class="cls-4" x1="225.69" y1="77.46" x2="224.94" y2="83.09"/><path class="cls-4" d="M212.17,90.22a28.35,28.35,0,0,1,3,4.88"/><line class="cls-4" x1="217.05" y1="80.84" x2="216.68" y2="85.34"/><path class="cls-4" d="M352.2,258.78s-9.38-6-10.14-8.26"/><path class="cls-4" d="M341.31,238.51a28,28,0,0,1,4.13.75s8.64-.37,11.64,3"/><path class="cls-4" d="M342.44,231.38s7.88-2.25,12-.75,7.51,2.63,7.51,2.63l5.44,2.06"/><path class="cls-4" d="M355.2,235.51s6.39,2.25,7.14,3.75l1.12,3.38"/><path class="cls-4" d="M358.21,250.52s-4.13-1.87-4.51-2.62"/><path class="cls-4" d="M343.19,273.05l-3.75-3.75-7.51,2.62-4.13,10.52,1.88,7.88,3.37,6.76s1.51,4.13,3.38,2.62a14.85,14.85,0,0,0,3.1-3.56l1.41-8.82Z"/><line class="cls-2" x1="93.64" y1="154.99" x2="100.49" y2="157.33"/><path class="cls-5" d="M340.46,294s13,7.91,19,10.93"/></g></g></svg>