<svg xmlns="http://www.w3.org/2000/svg" viewBox="0 0 755.97 1015.42"><defs><style>.cls-1{fill:#ccc;}.cls-1,.cls-2{stroke:#5c5d60;stroke-miterlimit:3.97;stroke-width:0.5px;}.cls-2{fill:#db673b;}</style></defs><g id="Layer_2" data-name="Layer 2"><g id="svg1926"><path id="pe" class="cls-1" d="M138.24,254.88c1.73-3.55,2.69-6,5.41-9,1.21-1.36,2.15-3,3.62-4.08,1.06-.81,3.37-1.89,3.47-3.44,1.73.49,3.55,7.5,2,8.37-1.1.64-2.34.07-3.13,1.18-.9,1.27-.69,3,1.08,3.24-1.47,1.95-1.06,4.41,1.26,1.93,2-2.18,3.05-.65,5,1,1.65,1.39,3.54-.72,4.85,1.38s1.38,5.72,4.48,6.31c2.62.49,2.78.35,3.53-2.53,5-19.22,9.09-26,3.34-5.14-.84,3,.89-5.48,2.18-8.38a8.82,8.82,0,0,0,1.22-4.05c0-1.09,1.66-4.35,2.28-1.42a2.38,2.38,0,0,0,.25-2.12c-.1-.95,1.3-2,1.81-2.66a12.86,12.86,0,0,1,5-4c4.37-2,9.5-2.73,13.49-5.48a38.11,38.11,0,0,0,16.06-24.37,2.71,2.71,0,0,0,2.49.86c-1.23-2.86.06-5.39-1.66-7.84-.68-1-4-3.89-3.83-5.07,1.42.24,3.07.72,4.41-.08s.91-1,2.41-.48a13.42,13.42,0,0,1,6.3,4.11c2.32,2.79,3.64,3.82,4.75,7.38.47,1.48-.11,2.7,1.95,2.88s1.47,1,2.85,2.19c2.68,2.38,4.66,1.11,5.59,5.18.73,3.14.59,3.9,4,4.91,3.64,1.08.2,5.3,2.06,7.41a5.06,5.06,0,0,0,4.06,1.46c.91-.12,1.84-.2,2.76-.24,1.23,0,2.67.72,3.76.68a8.37,8.37,0,0,0,6.56-4.06c1.14-2.29,4.31,2.09,5.69,2.2,2.06.16,5.38-3.06,6.85-2,1.18.86,2.09,2.4,3.22,3.17s3.64.54,4.31,1.24c2.73,2.88,2.77,3.92.64,7.28-1.71,2.69-5,7.29-5.51,10.42-.56,3.75,3.78.82,5.41,2.23a22.12,22.12,0,0,1,3.27,4.12c.47.68,1,1,.77,1.57-.15,1.2-1.22,1.62-2,.26l-1,1.24c-1.94-2.63-6.26-4.34-8.72-1.26C274.08,254.9,268,254,264,255c-2.1.55-3.12,2.88-5.21,3.52s-1.48,1.56-2.94,2.87c-3.51,3.13-5.93,2.23-6,7.61,0,1.86.09,3.43-1,5.05s-2.29,3.09-1.88,5.07,2.22,5-.09,6.55c-1.95,1.33-3.78,2-5.37,3.86a5.26,5.26,0,0,0-1.4,4.67,10.63,10.63,0,0,0,.91,2.49,8,8,0,0,0-2.71,1.72c-2.82,3,5.5,5.63,2.08,7.71a8.1,8.1,0,0,1,3.32,5.2c.21,1.17,1,1.58,1.88,2.26,1.07.86,1,2.16,1.67,3.23,1.25,1.87,3.64,2.75,4.51,4.91,1,2.58-1,4.15-2.38,6,3.08,1.6,7.62.16,10.68,2.18,2,1.31,3.83,4.72,3.07,7.13,4.14.51,9.45,1.41,13.14-1.1,2.32-1.58,5.36-7.3,8.49-7.34-.37,1.5-1.54,1.58-.62,3.12s-.66,3.28-.55,5.15c.27,4.87.43,9.86,1,14.7,1.61-1.4,2.7,1.47,4.37,1.31,2.31-.23,3.94-2,6.31-2s3.91-.23,4.57,2c1,3.38,3.41,6.17,5.13,9.26s3.47,6.21,5.26,9.29c1.56,2.68,2.93,4.37.38,6.26-2.25,1.68-2.51,4.69-1.69,7.1.7,2.08.19,4.85.3,8.6.06,1.62,2,3.67,2.11,5.35,0,.1-1.45,4.08-1.57,4.18-1.52,1.37-2.42,3.84-3.13,5.75-1.29,3.48,2.17,3.78,2.18,6.48,0,1.92-1.27,2.72-1.63,4.58-2-1.38-6.58-6.08-7.44-2.58-.6,2.41.52,1.58.78,4.61.14.34-2-2-1.16-1.26,0,.51-2.9,3.06,2.24,4.86.18-2.42,3.14,1.48,4.52,1.09.79-.22.38.88.22,2.72,1.58.45,4.38,1.22,4.64.23a6.41,6.41,0,0,1,1.83.47c-1,5.54-.32,4.31.44,4.93-.56,1.16.24.89-.56,1.92-1.37,1.78-2.61,4.47-4.26,6.11-.72.71-1.72,1.08-2.29,1.95-1,1.59,1.12.85,1.4,2.18.36,1.71,1.05,1.65.44,2.42-9.95,12.41-3.34,1.69-3.75,2.56-.94,1.95,1.49,4.45.18,6.68-1.13,1.93-3.52,2.61-5.63,2.61-2.37,0-4.19-1.76-5.79-3.26-1.9-1.77-4-2.6-6-4-3.63-2.56-3.36-7.21-7.72-9-5.16-2.1-8.63-7.11-14.09-8.44-2.55-.63-5.18-2.38-7.4-3.75-2.66-1.65-5.53-2.2-8.24-3.65s-4.9-3.59-7.56-5.1c-3-1.69-6-3.34-9-5-2.55-1.38-4.09-4.57-6.09-6.62-2.66-2.72-6.41-4.14-8.27-7.52-1-1.9-2.38-4.19-4.22-5.33-1.61-1,.52-4.84-2.3-4.36a3.64,3.64,0,0,1,.38-1.38c.42.25.84.5,1.25.76,1.11-5.52-1.29-8.38-4.07-12.89-2.53-4.11-4.25-8.45-7.79-11.79-1.06-1-2.15-1.53-1.86-2.9.34-1.57-.59-3.35-1.35-4.66a13.87,13.87,0,0,0-2.8-3.65c-1.07-.9-2.88-1.32-3.55-2.63a4.71,4.71,0,0,1,.18-2,16,16,0,0,0-1.84-4.51c-1.31-2.52-3.09-4.76-4.54-7.2a49.57,49.57,0,0,1-3.1-7.54c-2.26-5.78-5.9-10.24-7.53-15.84-2.24-7.63-8.76-12.28-11.73-19.83-3.39-8.63-10.4-14.78-18.9-18.34-.74-.31-3.55-1-3.64-2-.13-1.43-.44-3.83,1.64-3.57,3.69.45,2.29-3,1.09-4.82-1.68-2.54-3.36-3.61-3.45-6.78.34-.4.68-.82,1-1.24-.06-.48-1.54-1.82-1.86-2.19-1.73-1.93-.67-3.06-1.4-5.25"/><path id="gf" class="cls-1" d="M491.69,153.19c2.24-.11,4-3.92,4.79-5.59,1.42-3.12,0-6.59,2.16-9.43,2.54-3.37.21-5.85-2-8.53s-2.15-7.75-2.36-11.14c-.25-4,.33-6.2,3.23-9,1.08-1,2.43-2.16,2.78-3.67.44-2,1-4.42,3.76-3.37,1.82.68,3.07,2.15,5,2.67,2.09.57,4.62.54,6.39,1.94,2.07,1.65,4.83,7.94,8.08,7.71a7.38,7.38,0,0,0-1.12,2.61c.92-4.13,8,3,4,5.71,2-.72.82-2.54,1.8-3.84,1.49-2,2.64,2.63,2.76,3.61.54,4.65-3.06,9.58-5.49,13.28a61,61,0,0,0-6.57,12.65,10,10,0,0,1-3.06,4.5,9.84,9.84,0,0,1-2.56,1.88c-1.36.35-2.43-.72-3.88,0,.6-1.7-.47-1.7-1.74-1.31-1.79.55-3.32-.17-5-.74-.86-.29-4.19,2.11-4.72,2.74-1,1.17-5.6-2-6.26-2.68"/><g id="bo"><path id="path2375" class="cls-1" d="M298.6,351.23c3.31.21,6.64.5,9.94.74,1.51.11.73.36,1,1.26.41,1.62,2.76,0,3.42-.32s2.29-.65,2.78-1.42c.75-1.18,1-2.85,2.13-3.78,2.5-2,4.5,1.26,5.86-2,1.19-2.88,4.87-3,7.15-4.61,2.12-1.48,3.19-4.55,5.82-5.32,3.14-.91,6.65-2.38,10-1.92,3.69.51,2.88.84,5.32-1.45,5.3,3.64-.38,10.58,1.16,15.26.38,1.17,1.36,1.84,1.77,2.88s-.67,2.36-.94,3.41c-.81,3.15,2.28,4.85,3,7.2.5,1.69.34,1.49,1.81,2.73.9.77.68,2.69,1.52,3.17,1.12.65,1.75.07,3,1.05s2.26,1.48,3.6,2.55c.18.14.91,1.74,1.21,2.06a5.19,5.19,0,0,0,3.06,1.53c1.69.39,3,1.08,4.68.16,1.36-.75,2.34-.4,3.58.46,1,.7,1.84,1.61,2.88,2.26,1.43.9,1.71-1,2.85-.64,2.16.63,2.23,4.66,5,5,2.45.27,4.15,2.2,6.58,2.33,3.37.18,3.86,5.14,6.67,5.86a16.67,16.67,0,0,0,6.82-.15c3.24-.49,6.51,2.07,9.2,3.58,4.39,2.48,1.58,4.83,3.17,8.41a52.8,52.8,0,0,1,3.27,11.63,25,25,0,0,0-3.24.12c.13,3.06,4.06,4.83,4.57,8.12.39,2.45.12,5.34,1.21,7.63,1.37,2.89,6.71,1.91,9.34,2.17,4.95.48,10.08,1.2,15,.08.07,2.19-1.21,3.53-1.38,5.5a17.17,17.17,0,0,0,.95,5.27c.68,2.48,3.6,6.36,6.32,6.86,1.39.26,2.12-.66,2.75,1.08.47,1.31,1.1,2.53,1.63,3.83,1.4,3.43,3.2,5.33,2.41,9-.41,1.87-2,5.08-1.33,7,.91,2.69-1,5-2.07,7.58-1.42,3.49-1.49,5.09,1.37,7.49,2.13,1.78-1.28,2.88-2.77,4,1-3.37-3.24-7.16-5.9-8.85a28.6,28.6,0,0,0-9.16-3.84c-8.92-1.89-18.21,3.05-26.7,3.92-4.15.43-6.22.83-6.89,5.28-.55,3.7-3.24,5.73-3.85,9.32-.57,3.37.89,6.67.2,10.15-1,4.95-1.24,10.33-2.44,15.23-3.8-2.42-2.2-4-5.65-3.91-2.69.12-5.95-.52-8.46.31-3,1-2.81-1.31-4.41,2.71a35.53,35.53,0,0,0-2.23,10c-3.8-5.25-3.17-10.33-10.47-11.49-3-.47-7.32.93-10-.35-2.32-1.12-3.66-3.91-6.31-4.43-.36,3.73-.15,4.91-3.93,6.28-1.9.68-4,4.29-5,6.08-1.56,2.66-2.16,3.81-5.79,4.31a5.55,5.55,0,0,1-4-1.25c-2.34-6-3-9.69-5.63-14.55-2.27-4-1.93-7.3-3.69-10-1-1.59-2.88-2.89-3.81-4.44-1.22-2,.65-4.05-.15-4-1.53.14-2.55-1.46-3.25-2.85-.78-1.55,1.06-2.61-1-4.55,3.71-2.23,3.41-1.88.79-5.38-.38-.51,1.14-2.67,1.33-3.14.77-2-.14-2.92-1.84-4.36a16.56,16.56,0,0,1-6.05-9.47c-.51-1.91-3.47-6.8-1.61-8.57-6.26-1.26-6.32-10.65-8.87-11.17a3.9,3.9,0,0,1,1.95-2.39c1.36-1,1.79-2.53,2.73-3.84a13.45,13.45,0,0,1,2.5-3.06c.16-.13-.18-2,.14-1.86,1,.5,3.38,1,1-1.82.77.49,3.66-2.73,3.61-1.84-.2-3.23-5.26,2.12-3.28-5.33-3.15-.53-.49-1.31-7.33-5.78.34-1.77,2.55-3.64,1.65-5.49-1.41-2.91-3.61-3.45-1.79-7.05a50.61,50.61,0,0,0,3.19-6.38c.93-2.74,1.49-2.63-.13-5.52-1.48-2.67-.39-4.8-.65-7.66-.22-2.3-1.63-7,.12-9s3.34-3.26,1.84-5.8c-4.24-7.18-8.75-14.46-12.63-21.82"/><path id="path5225" class="cls-1" d="M312.77,429.89a9.28,9.28,0,0,1-1.93-.37c-.53-.15.39-1.54.87-1.79.56.54,1.62,1.8,1.06,2.16"/></g><g id="br"><path id="path2886" class="cls-1" d="M704.52,390.34c1.88-4.88-3.22-.91,0,0"/><path id="path2814" class="cls-1" d="M520.44,210.68a6.62,6.62,0,0,0,3.25-1.86,2.79,2.79,0,0,0-3.25,1.86"/><path id="path2816" class="cls-1" d="M523.44,212.41c1-1.13,2.64-.87,3.74-1.87-1.16-1.88-4.49-.12-3.74,1.87"/><path id="path2846" class="cls-1" d="M546.18,156.29l.87-1.24c-1.39-.4-1.68,0-.87,1.24"/><path id="path2848" class="cls-1" d="M547.31,159.89c1.92-.94.93-2.6,0-3.85-1.88.87-.87,2.68,0,3.85"/><path id="path2818" class="cls-1" d="M527.31,209.92c3.43-.83,11.7-8.94,9.72-12.81s-5.88,1.36-6.4,3.47c-.37,1.55.31,3.2-1.26,4.22s-3,3-2.06,5.12"/><path id="path2820" class="cls-1" d="M534.07,195.16c1.29-.86,4.8-3.21,3.12-5.1-1.8.94-2.52,3.33-3.12,5.1"/><path id="path2822" class="cls-1" d="M534.19,206.08c1.86-.65,3.32-3.31,2.12-5.09,0,2-2.14,3.11-2.12,5.09"/><path id="path2824" class="cls-1" d="M539.55,200.87a4.18,4.18,0,0,0-2.74,3.22c1.73-.41,2.13-2.32,3.51-3.22h-.77"/><path id="path2826" class="cls-1" d="M537.68,196c.56-1.22.81-2.59,2.25-3.1-1.94-1.92-2.74,1.76-2.25,3.1"/><path id="path2828" class="cls-1" d="M537.43,202.23c1.13-1.25,1.87-2.86,3.23-3.91.76-.59,1.19-2.17-.33-1.63s-3,3.92-2.9,5.54"/><path id="path2830" class="cls-1" d="M538.3,196.14c1-.3,1.81-1.11,1.37-2.22a2.14,2.14,0,0,0-1.37,2.22"/><path id="path2832" class="cls-1" d="M541.06,192.18c.92-1,2.13-1.64,3.05-2.63,1.14-1.25-.8-1.71-1.67-1.31-1.78.8-5.23,3.18-1.38,3.94"/><path id="path2834" class="cls-1" d="M539.43,196.52c1.06-.55,3.31-1.35,2.5-3-1.62.12-1.83,1.88-2.5,3"/><path id="path2836" class="cls-1" d="M540.05,200.49a3,3,0,0,0,1.37-1.61c-1,0-1.61.55-1.37,1.61"/><path id="path2838" class="cls-1" d="M540.44,187.83l.12.75a4.14,4.14,0,0,0,2.5-1.25,1.81,1.81,0,0,0-2.62.5"/><path id="path2840" class="cls-1" d="M542.17,209.8c.93,1.49,1.56,3.22,2.82,4.48.94,1,4.83,1.24,2.82.13,1.78.2,4-.85,5.65-.37,1.17.33,2.88,1.27,2.48-.87a14.18,14.18,0,0,0,.87,1.36c1.23-.83,2.49-2,2.5-3.61.7,2.58,5.15.74,6.57,0,2.6-1.34,2.53-4,4-6.27a17,17,0,0,0,2.4-6.77c.47-2.34,3.21-6.31-.9-6.56-3.22-.2-7.29-2.2-10.35-.88-1.35.58.14,1.15-2,1.05a23.59,23.59,0,0,1-5.26-.81c-3.35-.88-7.72-2.37-9.94,1.36-1.22,2.05-1.32,5.3,1.45,6.09-1-.22-2-.46-3-.74-.41,1.14.43,1.66.37,2.74-.07,1.24-1.08,2.18-.41,3.51s2.81-.45,3.91-.16c-1.71,2.86-1.34.8-4.37,1.24.67,1.54.44,3.45.36,5.08"/><path id="path2842" class="cls-1" d="M544.93,187.83c1.67,1.23,1.65-.55,1.1-1.64-1.26-2.51-2.6.16-1.1,1.64"/><path id="path2844" class="cls-1" d="M546.56,185.35c1.26-1.85,2.21-4,.49-6-.78,1.51-2.26,5.47-.49,6"/><path id="path2850" class="cls-1" d="M551.43,187.83c1.21,2.44,3.59-1.42,4.61-2.46,2.65-2.72-2.09-2.25-3.56-1.79s-4.71.59-5.2,2.39c-.42,1.52,3.31,1.76,4.15,1.86"/><path id="path2852" class="cls-1" d="M549.05,182.75c.7-.57,4.08-3.13,2.8-4.2-2-1.72-4.34,2.63-2.8,4.2"/><path id="path2854" class="cls-1" d="M549.19,184.47a5.2,5.2,0,0,0,2-1.48,1.74,1.74,0,0,0-2,1.48"/><path id="path2856" class="cls-1" d="M549.19,176.78c1.24,0,2.78-.39,2.62-2-1.33-.39-3.08.34-2.62,2"/><path id="path2858" class="cls-1" d="M552.17,174a1.13,1.13,0,0,0,.38-1.85,1.17,1.17,0,0,0-.38,1.85"/><path id="path2860" class="cls-1" d="M555.56,187.83c-1.79,2.73,2.62,2.2,4,1.74,2.46-.82-1.88-3.84-4-1.74"/><path id="path2862" class="cls-1" d="M566.3,214.77a11.64,11.64,0,0,0,.75-3.34c-1.56.54-2.39,2.26-.75,3.34"/><path id="path2864" class="cls-1" d="M572.93,205.22c3.38,3.29.74-4,0,0"/><path id="path2866" class="cls-1" d="M582.93,198.13c1.32.6.05-1.3,0-1.36v1.36"/><path id="path2872" class="cls-1" d="M598.67,203.09a1.24,1.24,0,0,0,1-1.36c-1.34-.28-1.67.17-1,1.36"/><path id="path2874" class="cls-1" d="M618.91,208.82a1.45,1.45,0,0,0,1-2.12c-.48,1.41-.82,1.7-1,.86v1.26"/><path id="path2876" class="cls-1" d="M621.92,212.79l1.37-.5c-1.2-.79-1.65-.62-1.37.5"/><path id="path2878" class="cls-1" d="M624.68,233.65a10.53,10.53,0,0,0,1.37-5.1c-2,.84-1.29,3.46-1.37,5.1"/><path id="path2882" class="cls-1" d="M636.29,223l1.13-1.24c-1.33-.12-1.71.29-1.13,1.24"/><path id="path2812" class="cls-1" d="M237.35,300.2c.89-1.69.51-2.61,2.47-3s-.32-2.67.23-5.28c.89-4.2,4.11-4.55,6.9-6.35,2-1.28.53-4.09,0-6.15-.44-1.89.55-3.59,1.61-5.08,2.13-3-.13-7.32,2-9.95,1.13-1.35,3.51-1.44,4.84-2.72,1.17-1.14,1.21-2.45,2.83-3,2.1-.72,3.28-2.76,5.29-3.58s4.75-.71,6.77-1.12c2.4-.5,4.39-.39,6.16-2.25a4.79,4.79,0,0,1,3.4-2.14c1-.23,1.21.22,2.57.51,1.15.25,2.43,1.62,3.1,2.52.33-.42.67-.83,1-1.24,1.82,3,2.72-3,2.87-4,.72-4.79,1.44-9.57,1.92-14.39a186.22,186.22,0,0,1,2.7-19.48c.56-2.72,1.7-5.18,1-8s-2.55-4.11-2.64-7-1.55-3.51-3.79-5.59c-2.5-2.33-2.54-4.77-2.54-7.73,0-1.71-.27-3.87.65-5.45,2.36-2.55,7-3.85,8.9-1.95,2.05,1.08,2.76.47,2.6-1.87-.26-3.65-5.91-5.62-9.09-3.87,0-2.64-1.43-7.22-.18-9.5s5.6-.43,7.2-.43c3.81,0,7.38-.07,11.18.09.67,0,2.83.24,3-.8.11-.54-.22-2.11.51-2.58,2.67-1.72,2,3.69,4.2,2.63,1.87-.91,2.9-3.22,4.5-4.49,2.92-2.33,4.38,1.17,5.09,2.83a13.32,13.32,0,0,1,1.08,8.13c-.07.75-.55,2.45.84,2.2,1.94-.35,1.55-1.44,3.08.09,1.87,1.86,3.08,4.26,5.55,5.39,3.3,1.51,5.51-.89,8.06-2.14,5.06-2.47,2.35,3.44,3.09,4.79,1.23-.4,3.26-3.58,4-4.65,1.27-1.82,1.83-2.92,4.05-3.78,1.87-.71,2.87-1,4.29-2.35,1-1,3.64-2.84,3.53-.15,1.49-2.45,3.15-3.34,3.87-6.2.58-2.25,1.43-2.17,3.44-3,.87-.36,4.13-2,4.53-2.62,2.39-3.57.59-4.23-2.22-3.89-1.38.17-3.7.12-4.8-.8-.65-.54.11-3-.15-3.69-1.29-3.46-2.63-4.8-2.55-10.57,0-2.42-1.78-4.08-3.67-6-1.08-1.1-4.59-5-2.94-6.65,1.13.49,1.71,2.07,2.93,2.19,1.67.16,5.27-1.06,5.7,1.44.31,1.74,1,2.19,2.92,1.93,3.19-.43,5,1.14,5.56.18,2.51-4.48,4.45,5.47,7.93,4.84,2.28-.42.18-4.65,1.33-6.43.69-1.08,2.57-.53,3.58-1.74,1.48-1.76,2.89.64,4.41.12,2.38-.82,7.75-2.24,8.83-4.24a16.74,16.74,0,0,1,3.23-1.73c1.39.11,3.07.86,4-.83,1.53-2.75,7.17-4.54,3.16-9.7,1.9-.28,3.52,0,5.43-.53,1.55-.45,2.71,0,3.74,1.62,2.19,3.32-.61,5.71-1.15,8.67-.27,1.51,3.35.72,5.29,2.65.43.43-.54,1.68-.17,2.54a28,28,0,0,0,2,3.74c.86,1.41-3.09,5.12-3.4,6.28s-.34,2.48-.64,3.73c-.56,2.28-1.84,4-2.12,6.4-.41,3.47.09,6.65,2.39,8.9,1.65,1.6-.19,6.64,2,6.47l-.5,1.25c2.6.29,4.56,3.18,5.6,5.12.87,1.61,2.61.12,3.63,1.63.92,1.34,2.49,1,3.29,1.17s1.84-2.29,2.87-3.14c3.65-3,6.15-2.72,9.06-4,1.68-.72,2.52.3,3.93-1.39,1.87-2.24,3.81-3.45,7.07-2.45,2.66.82,4.05-.78,6.82,0,1.8.5,6.79,3,7.47,0,.62-2.82-2.88-3-1.57-5.64,2.39-4.78,2.87-.66,5.73-1.38a42.42,42.42,0,0,0,4.74-1.48c3.5-1.29,3.34-.6,5.94,1.55.52.42.14-1,.76-.06.77,1.19,2,1.6,3.12,2.45,1.47,1.1,2.83,1.24,4.35,2.06.65.62,1.61-1.87,5-3.07.85-.47,1.92.65,2.82.73,1.12.1,5.39-1.1,4.59,1.19,1.22-.58,3.18.86,4.19,0,1.43-1.27,2.71-1.81,3.79-3.46,1.52-2.32,4.38-9.78,5.92-12.08,4.86-7.28,9.39-13.23,7.19-18a34.55,34.55,0,0,0,3.45,7c-.57-1.62-1.94-3.61-.5-5.22,3.79,2.34,4.28,6.09,3.87,10.19.21-1.21.33-2.52,1.37-3.36a42.72,42.72,0,0,0,2.34,16.14c.78,2.08,4,8.38,1.65,10.31,1.82-.6,2.12,1.35,2.7,2.54,1.11,2.31,3.75,1.38,5.69,2.18,4.41,1.82,3.56,7-.27,8.69a3,3,0,0,1,2.89.62c-1.69,1.67-4.61,3.17-5.28,5.6-.35,1.25-1.79,1.81-2.46,2.84-1,1.54-1.48,3.27-2.73,4.7-1.7,1.93-3.87,3.34-5.77,5-2.34,2.12-3.57,5-5.54,7.39a8.33,8.33,0,0,0-2.24,6.85c.14,1.61-2.86,1.9-3,4.12-.15,3-2.35,1.38-3.89,1.33s-5.85,2.11-6.37,3.46c1.25-.29,8-1.56,6.11,1.5,1.28-1.39,3.27-1.27,4.81-2.17a45.58,45.58,0,0,1,5.14-3,20.12,20.12,0,0,0,7.69-6.6c3.29,1.9.15,6.8,2.29,9.42.86,1.05,0,3.86,1.45,4.27,1.18.35,3.23-.33,2.51,1.72,2.77.53,7.74-4.49,8.24,1.24-.24-1.77,1.51-2.09,2.84-2.35a1.39,1.39,0,0,0,1.41-.88c.52-1.37,2-.86,3.13-1.12-1.48,4.61-2.86,7.63-2.64,12.42,2.12-2.72.87-8.63,4.42-10.3,2.37-1.1,2.76-1.43,4.16-3.7,2.31-3.75,2.94-1,5.29.46a5.63,5.63,0,0,0-.61-2.24,35.84,35.84,0,0,0,3.87-.62c-1.31-.66-2.8-.12-4.13.12-.33-1.81,1-1.89,2-2.86,1.55-1.48-.12-4.76,1.79-6.63,2.25-2.21,1.61-.35,3.11-.93,1.05-.4,3.25-3,3.5-.38,2.08-2,2.19.8,4.12.12a2.13,2.13,0,0,1-.51-2.72c1.19.34,4,1,3.39,2.84.41-.22.83-.42,1.25-.62l.5,1.38c1.08-.85,1.25-.86,1.25.61a2.48,2.48,0,0,0,1.76-2.23c-.63,1.61,1.58,1.91,1,3.49.16-1,.81-1.66,1.88-1.26a2.18,2.18,0,0,1-1.75,2.12c1.78-1,3.41,1.49,5.12-.12-.23,2.33,1.5.95,2-.26-.72,2.83,1.67,1.66,1.49,3.49a2.81,2.81,0,0,0,1.51-1.37c-.23,1.6,1.78,1,2.12,2.48.43-.4.84-.81,1.25-1.24a4.5,4.5,0,0,0,1,2.49l1.23-1c.21,1.24.71,1.83,1.88.62a1.75,1.75,0,0,0-.49,2.6,2.5,2.5,0,0,1,2-1.86c-1.41,1.26-.91,3.95.39,5.1.56-1-.12-2.82,1.31-3.37,2.59-1,1.43.86,2.68,1.25a2.2,2.2,0,0,1,1.49-2.22,5.23,5.23,0,0,0-.62,2.6c3-1.77-.39,3.51,2.76,1.61-.44.39-.85.81-1.25,1.24a2.14,2.14,0,0,0,2.5-1c-.86,1.83,2.15.83.85,3.29-1.17,2.2-.62,4-3.48,4.9,1-.64,1.84-.07,2.12,1,.08-1.58,1.82-4,3.29-2,1.56,2.2-1.18,2.88-2,4.53-.74,1.4-2,5.73-1.54,7.25.56,1.69-2.13,3.09-1,4.34.16-2.37,3-3.09,4-5s.34-5,1.43-6.54c.56-.79,3.07-2.58,3.89-1.22,1.33,2.24-2.9,3.43-3.19,5.28,1.24-.79,1.65-.5,1.25.88,1.46-.7,3.51-6.37,4.26-3.48.12-2,4-3.07,5.48-2.23-.16-3.92,8,.42,9.47,1.25,1,.59,6.68,2.88,6.78,4,1.23-.8,4.5,1.22,3.89-1.36,1.63.36,2.74,1.57,4.23,2.22,1.72.75,3.56.63,5,2,0-2.39,1.46-2.13,3.33-2.2,3.74-.13,7-1.63,10.86-.82,7,1.48,13.44,7.41,18.88,11.65,1.82,1.41,3.89,1.65,5.4,3.43s2.55,3.6,3.91,5.35c1.54,2,3.6,2.85,5,4.79s4.27,2.3,5.92,4.44,4.09,1.28,6,3.13c2.19,2.14,6,1.28,8.74.94,6.2-.76,10.77,1.54,12.57,7.64.7,2.36,1.75,4.72,1.79,7.22,0,.76-.64,2,0,2.31a3.54,3.54,0,0,1,1.31,1.88c1.13,2.67,3,8.62,1.59,11.44.4-.61.77-1.22,1.11-1.86-.27,2.82,1.81,6.22-1.11,8.31.46.11.92.24,1.37.38-1.17,2.34.68,5.15-.75,7.27s-.37,5.15-1.53,7.45c-1.35,2.68-1.81,5.68-3.06,8.4-1.37,3-4.36,4.93-5.53,8-.43-.31-.85-.63-1.25-1,.09,1.26-.3,2.82-1.51.74a1.51,1.51,0,0,0,1.51,1.24c-1.82,3.57-4.49,8.23-7.51,10.94-1.24,1.11-2.92,1.55-4.19,2.66s-2.35,2.67-3.92,3.53a1.74,1.74,0,0,0-1.39-2.11c-.12,1.16,1.34,1.53,1.13,2.61-.27,1.38-1.48,3.24-2.86,1.5.68.89,2.3,1.75,1.32,3.09-.56.77-2.92,3.35-2,.49-.78,1.24-.62,2.8-1.73,3.87l1.49-.5c-2.75,3.9-7.12,23.54-14.25,22.35,1.31-3-1.72-3.53-2.62-5.85-.06,1.34-1.56,5.13-2.74,2.24.36,1.21,2.24,1.71,2.19,3-.1,2.29-3,3.92-2.19,6.42-2-1.34-1.6,2.09-1.63,3.49a9.45,9.45,0,0,1,.62-1.86,11.85,11.85,0,0,1,.62,5.08A13.34,13.34,0,0,1,702.4,393a6.6,6.6,0,0,1,1.63,5.23c.34-.87.67-1.75,1-2.63.17,5.23-1.5,10-.74,15.26.65,4.55,2.64,9.31,2.87,13.84.4,8.05-4.69,15.55-2.43,23.81,1.26,4.6-1.68,5.17-3.66,8.63-2.29,4-2.64,8.94-2.07,13.42.41,3.19,2.31,9.63-1.49,11.29-3.59,1.57-.71,8.54-5,9.12,3,2.66-2.1,6-3.83,7.63-1.49,1.41-1.06,2.46-1.58,4.35-.77,2.78-2,5.28-1.6,8.24.24,1.54,1.36,4,.2,5.35-1.92,2.32-4.85,2.25-7.27,3.68a10.56,10.56,0,0,0-4.05,4.53c-.48,1.13.08,2.18.41,3.26s-1.09,1.69-.53,2.93c-1.7-1.88-6.6-.94-8.75-.49-1.25.26-3.27,1-4.49.25-1.81-1-.53-2.78-.63-4.35-4,.47-.72,2.14-1.25,4.15s-8.57,1.21-10.38,2.18c1.23-1.3,3.35-.71,4.88-1.24-1.65-1.46-3.49-2.25-5.53-1-1.81,1.1-2.62.22-4.49.43-1.36.16-3.61.31-4.09,1.91s1.88,2.15,2.74,2.79c-2,1.6-4.6-.09-5.89,1.8-1.11,1.63-2.9,1.83-4.43,2.89-1.36.93.31,2.37-1.05,3.26-1.88,1.22-5.09-2.25-7.76,0-.28.23-2.13,3.61-2.8,2.78s-.12-1.79-1.57-1.54c.76,2.25-2.18,2.51-3.81,3.59-2,1.33-2.93,3.22-4.51,4.93s-4.38,2.37-6.24,4c-1.6,1.43-2.51,3.6-4.31,4.8.41.26.83.51,1.25.76a17.71,17.71,0,0,0-3.63,5,3,3,0,0,1,.74-2.48,4.67,4.67,0,0,1-3.87-.39c.57,2.58-.88,4.07-3.36,2,0,1.48,3.5,3,4.86,2.86a5.58,5.58,0,0,0-1.5,3.23c-.18,1-2.13.65-2.74,1.12a14.91,14.91,0,0,1,2.5.12c-.38,1.17.11,2.38-.23,3.54-.41,1.38-1.88,1.61-2.27.06.48,1,.26,2.4,1.39,2.88,1.49.63.62,3.76,1,4.95.56,1.9,2.94,4.69,1.88,7.07,1.83-.43,1.64,1.72.13,2,1.66,1.26.37,6.56,1.69,8.75s-1,7.17-1.06,9.26A6.18,6.18,0,0,1,595,611c.45,1.07.41,2.33,1.75,2.75-1.39,1.95-3.61,3.12-5.4,4.67a20.81,20.81,0,0,0-4.4,6c-2.87,5.32-3.7,11-5.22,16.75a49.28,49.28,0,0,1-7.27,14.93c-3,4.43-7.42,7.59-11,11.63.63-1.6-.27-3.56-.63-5.11,1.84.5,2.57.66,4.2-.46,1.45-1,2.26-3.3,3.57-4,1.81-1,2.11-1.84,2.11-3.92,0-1.34.23-3.69,1.88-1.75-.62-2,.31-2.72,1.48-4.1a4.6,4.6,0,0,0,1-3.85c-.16-1-1.27-4.51,1-2.36.06-.54-.68-3.87-1.55-3.58-.54.19-3.55,2.43-3.57,3.09-.82-.93-1.29-2-2.52-2.46-1.44-.51-1.16-2.56-2.48-3.25-.11,3.4,1.51,3.27,2.87,5.71-2.87.7-.79,4-1,5.83a6.51,6.51,0,0,0-1.13-2.48c-.41,1.17.71,2.68.12,3.66-.27.44-1.19.36-1.06,1,.54,2.82-1.88,4.33-3.9,5.48-1.59.9-1,2.87-1.41,4.36-.38,1.24-3.54,4.28-.5,4.58-1.62,1-.47,3.2,1.12,2,.26,1.59-.91,3-1.55,4.39-1.05,2.18-1,4.82-1.31,7.17-.66,4.63-3.5,7.39-5.92,11.14-1,1.53-2.26,2.38-3.06,2.07s-2-2.35-2.37-3.3c-.77-1.76-.45-3.25-.57-4.76-.15-2,1.8-3.46,2.68-5.09,1.37-2.56-1.6-3.71-3.35-4.52-2-.94-2.88-2.71-4.11-4.47-2.88-4.12-6.9-3.93-9.61-6.82-2.23-2.33-4.85-3.62-7.57-5.12-1-.47-1.38-1.46-2.38-1.92-2.84,1.8-6.28-4.35-9.24-6.65,1.52,2.14-4.58,5.78-4.44,1.23.1-3.59-4.38-5.9-6.93-7.81-1.9-1.42-5.65-6.37-8.51-4.31-.95.69-1,2-2.51,2.35a4.43,4.43,0,0,1-4.63-1.39c2.67-1.07,2-5.26,5-6.49,2.74-1.11,3.82-4.9,4.89-7.72,1.21-3.19,3.5-5.9,5.1-8.88.81-1.51,2.76-5.52,4.88-3.35a1.51,1.51,0,0,0-1-2.25c1.69-2,3.41-4.63,5.73-5.93s2.81-2.38,4.44-4.14,3.74-2,5.78-3.08c1.48-.75,4.28-4,6.17-3.11a48.27,48.27,0,0,0,.24-8.58,24.24,24.24,0,0,0-1.73-9.12c-.9-2.45-1.46-5.27-4.2-6.24-1.59-.55-4.59-.78-4.94,1.47-.49-.46-1.7-.13-2.6-.72-.64-.42-.29-2.1-.35-3.2-.17-2.93.77-5,1.13-8,.25-2.06-.24-5.06.69-6.95s-1.73-3.57.51-5.18c-1.53-1-2.68-2.89-4.67-3.12s-3.64,1.49-5.45,2.12c-5.27,1.83-6.41-3.27-7.38-7.19-.58-2.33-2.25-4.73-2.68-7.09a27.27,27.27,0,0,0-5-10.17c-2.1-.54-4.15-1-5.9-2.48s-1.87-.41-3.57,2.31c-3.45,5.56-2.93-.08-4.59-.29-2.37-.3-5.23-.25-7.36-1.4-1.14-.62-5.66-1.08-6-2.51s.75-2.84,1.11-4.2-1-3.33-.5-4.67c.93-2.36-.06-4.51.43-6.78.37-1.75-2.77-2.42-1.1-4.39-2-.82-2.82-4.28-3.86-6.48-2.28-3.17,5.4-3.29,2.16-5.78-3.93-3-2.43-5.25-.57-9.47.5-1.14,2.14-3.5,1.54-4.59-1-1.85-.13-3.21.35-5.27,2-5.53.64-6.3-1.21-10.31-1.69-2.51-1.55-6.59-3.15-5.95-2.75,1.1-6.41-2.45-7.39-5.42a24.48,24.48,0,0,1-1.52-6.43c-.06-2.09,1.51-3.84,1.44-6-4.23,1-8.67.63-12.93.2-2.7-.28-8.85.54-10.8-1.62-1.77-2-1.4-6-1.82-8.47-.56-3.25-4.44-5.16-4.57-8.12a25.16,25.16,0,0,1,3.25-.12,62.28,62.28,0,0,0-3.13-11.18,5,5,0,0,1-.67-3.23c.13-1.83.21-3.23-1.31-4.43-3.78-3-7.82-4.93-9.86-4.7-6.86.78-5.06.2-7.17.18-1.71,0-4-3.76-4.77-4.84s-1.52-.62-2.69-.72-3.38-1.79-4.32-2.25c-.67-.33-1.62-.24-2.49-.64-2-.95-2.08-2.5-2.93-3.64-1.1-1.48-1.34-1.16-2.84-.49-1.77.78-2.7-1.23-3.91-2-3.12-2-4,.33-7.2-.41-3.63-.84-4-1.12-5.95-3.88-.93-1.3-4.27-3.41-5.81-3.57s-.95-2.32-1.85-3.32c-.66-.71-2.15-.59-2.14-1.71,0-2.45-2.85-4.65-3-7.26-.09-1.49,1-2.39,1.21-3.9.15-1.23-1.63-1.47-1.89-2.87a27.82,27.82,0,0,1-.38-3.43c-.06-1.53.73-2.77,1-4.11.47-2.57.65-6.66-1.74-8.3-.58.55-1.07,1.93-2,1.86a24.84,24.84,0,0,0-6.67.11c-2.63.44-7.09,1-8.79,2.93-2.89,3.27-3.31,5.42-7.26,5.54-.91,0-3.4,1.81-3.62,3.18-.3,1.9-2.41,1.11-3.53,1a3.35,3.35,0,0,0-3.39,2.78c-.32,1.84-2.06,3-4.08,3.5-.66.17-3.71,1.75-3.11-.62.16-.63-1.85-.75-3.29-.8-3.82-.12-9.3-.89-12.16-.73-1.8.11-3.77,2.27-5.73,1.67-1.17-.36-2.45-2.28-3.71-1.18-.56-4.55-.88-9.59-1-13.9a9.53,9.53,0,0,1,.91-4.54,2.21,2.21,0,0,0-.55-1.63c-.65-1.24.52-1.78.79-2.9-2.88.28-6,5.45-8.32,7.31-3.49,2.77-9.31,1.62-13.31,1.12.68-2.15-1.13-5.47-2.73-6.85-2.88-2.45-7.87-.82-11-2.46,3.67-4.76,2.47-6.11-1.47-10.13a5.27,5.27,0,0,1-1.37-2.55c-.37-1.16-1.61-1.68-2.32-2.58-1.65-2.07-1.27-4.68-3.83-6.35,2.56-1.46-2.31-4.37-3-5.94"/><path id="path2868" class="cls-1" d="M593.68,581.05l1.12,1.12c.44-1.21.92-2.51-.12-3.61a3.17,3.17,0,0,0-1,2.49"/><path id="path2870" class="cls-1" d="M597.93,603c1.13-1.56,2.14-4.66.74-6.35-1.82,1.09-.93,4.7-.74,6.35"/><path id="path2880" class="cls-1" d="M633.91,545.54c.18-1.15-.77-1.92-.24-3.1-1.59-.34-2.13,1.29-2.38,2.48a3.85,3.85,0,0,1,2.62.62"/><path id="path2884" class="cls-1" d="M644.8,534.37a3.77,3.77,0,0,0,2.5-1.62c-1.21-.86-3.1,0-2.5,1.62"/><path id="path2888" class="cls-1" d="M706.28,383.89c1-.9,3.29-2.4,1.37-3.73.32,1.53-1.44,2.26-1.37,3.73"/></g><g id="ve"><path id="path3410" class="cls-2" d="M246.73,51a28.74,28.74,0,0,0,6.21-13.36,38.53,38.53,0,0,1,4.71-12.84c2.07-3.45,6.76-5.45,8.75-9.07,2.26-4.12,6.12-3.06,9.82-5.32-1.5,3.65-5.45,2.22-7.63,4.83-1.85,2.21.13,7,2.51,8-2.16-.11-.08,4.64.13,5.53.64,2.76-2,5.55-3.88,7.29-2.41,2.27-3.58,5-2.09,8,.58,1.14.77,2.6,1.88,3.41s1.43.51,1.22,2.15c-.45,3.45,2.22,4.23,5,2.65s4-4,4.39-7.21c.48-4.08-1.36-6.36-3.42-9.69a20.7,20.7,0,0,1-2-4.28c-.44-1.33.7-3.15-.34-4.24,1.57.18,2.92-2.17,4.13-2.86,2.19-1.25,4.25-2.9,6.81-3.35a15.87,15.87,0,0,0,5.93-1.85c.73-.44,2.91-2.19,3.87-1.75a3,3,0,0,0-1-1.74c1,.39,3.87,2.81,4.86,1.67.68-.78,0-2.69-.89-3.05-1.48-.61-3.47.79-5,.89C291,13,289.56,4,294.67,6.05c2.32,1,1.84,6,2.2,7.92.8,4.35,5.5,1.46,8.62,2.54,3.49,1.21,7.84,2.14,9.37,6.17.93,2.46-1.5,8,2.63,8.86,4.92,1,11.14-1.22,16-1.86,4.18-.56,8.52-1.44,11.07,2.26a8.88,8.88,0,0,0,4.31,3.41c1.45.51,2.94.84,4.42,1.23-.16,0,4.84,1,2.53,1,3.93,2.12,5.8-2.46,8.9-2.74,1.89-.18,2.32-2.13,3.89-2.86,2.16-1,4.63.91,6.84-.35-1.91-2-6.38.14-7.64-2.36h3.28c1.54,0,2-.94,3.11-1a11.87,11.87,0,0,1,1.6.69,13.66,13.66,0,0,0,4.64-.17c6.48-1.09,13.12.13,19.5-1.14-1,2-4.19,1.63-6,2.59-2.88,1.5-6.27-.89-9,1.38.87-.86,1.78-.74,2.12.5a1.79,1.79,0,0,0-2,1.61c2.37-1.38,4.19,0,4.14,2.79,0,2.18-3.73.72-4.88.69.83,3.07,5.91.91,5.38-1.86,1.37.19,2,1.75,2.06,2.93.15,1.56,1.61,3.32,1.43,4.77a3.85,3.85,0,0,0,1-3.85,4,4,0,0,1,.37,5c1.33-1,.78-2.79.62-4.1a14,14,0,0,1,2,.62c-.13-.14-4.25-2.33-1.83-2s5.31,2.69,4.09,5.25c.55-1,1.33-.9.74-1.86a3.75,3.75,0,0,1,2.88-.25c-2.11-2.34,1.31-.23,2.09,1,1.41,2.28,3.92,1.34,5.75,2.76,4.91,3.78-.85,3.79-2.09,7.28a16.24,16.24,0,0,1,1.25-1.24c.35,1.78-1.6,4.88-2.45,6.36-.53.92-.38,1.7-1.57,1.7s-4.28-.93-5,0c1.53.87,4,1.12,4.88,2.86,1-1.28,2.38-2.19,2.62-.12a7.5,7.5,0,0,1,4.61-2.74c2-.39,2.74,1.69,4.57-.06,3.16-3,8.86,4.49,7.08,5.38s-2.79,2.18-4.24,3.54-3.68,1.9-4.75,3c-.77.8-1.39,1.91-2.08,2.79-1.39,1.8.64,2.92.49,4.87-.1,1.21.36,2.55,1.77,1.78,1.69-.91,2.87,1.29,1.59,2.51s-3.49,1.82-4.85,3.17c-.65.65-1.78-.29-2.45-.36s-.94,1.1-1.52,1.33c-5.26,2,.09,5.28-2.69,8.34-.71.78-3.54,2.55-2.53,3.91,1.7,2.31,3.45,4.65,5.28,6.86,2.17,2.62,6.6,6.78,2.45,9.78-1.4,1-2.4,2.9-3.81,3.91-.78.56-3.47-.09-3.65.2-.76,1.24-3,1-3.07,2.25,0,1.52-2.77,1.54-3.84,2-2,1-4.55,2.25-6.81,1.13-1.53-.76-2.95,1.14-4.54,1.45-1.95.38-2,2.41-1.52,4,.65,2.29-1.27,4.05-3.2,2.31-1.31-1.18-1.95-2.75-3.15-4-1.59-1.66-2.61.57-4.17,0-2.14-.77-2.94-.14-5.09-.37-1.68-.18-1.3.46-2-1.59s-3.12-2.1-4.79-1.77c-2.22.44-2.15-1.48-3.87-2.23-1.44,1.44,1.22,4.67,2.09,5.73,2.52,3.06,4.61,3.61,4.68,8a16.94,16.94,0,0,0,.44,4.2c.47,1.74,2.31,3.52,2.06,5.35-.42,3.11-.43,4.48,3.38,4.57,1.1,0,5.19-.81,4.84,1.17-.66,3.67-2.56,3.38-4.36,4.63-1.36.95-3.75,1.16-4.3,2.43-.62,1.44-.48,2.48-1.47,3.88-.89,1.24-2.07,2.22-2.87,3.53,0-3.34-5.17,1.8-6.15,2a8.23,8.23,0,0,0-5.26,3.73c-.94,1.3-2.9,4.69-4.47,5.21-1-1.25.3-2.81,0-4.16-.56-2.28-3.94-.07-4.82.57-5.09,3.64-9-.33-12.29-4.66-1.56-2-1.4-4.39-2.11-6.76-.82-2.72-2.83-6.51-2.7-9.36.09-2.24-5.93-9.58-8.65-7.54-.09-2.52,4-5.2,5.76-6.58,3.08-2.4,1-5-1.14-7.43-4.79-5.43-3.41-14.71-3.39-21.23,0-2.34.76-3.46,2.19-5,.91-1,.47-3.1,1.2-4.42s2.07-2.47,2.47-3.73c.71-2.27-2.41-4.53-3.7-3.94A16.12,16.12,0,0,1,311,95.53c-1.23-.08-3.85,1.21-6.65.46-2-.53-1.86.24-4.36.59-.46.06-4.08-1.09-3.74-.87-1.38-.88-2-2.83-2.89-4.15-1.23-1.86-2.39-3.7-3.52-5.63-.57-1-1.38-2.19-2.81-1.76-2.66.8-4.35-1.75-6.86-2-1.62-.17-2.33,1.13-3.8,1.5-2.18.55-4.22-1-6.39-.56-1.4.25-2.23-.64-3.68.09a3.44,3.44,0,0,1-4.15-1.44,8.94,8.94,0,0,1-1.22-2.85c-.39-1.55-2.55-1.39-3.33-2.49-1.5-2.12-.32-6.62.95-8.37,2.42-3.31-1.72-6.56-2.8-9s.1-8.41-3.63-7.45a6.09,6.09,0,0,0-.37-2.61,7,7,0,0,1-5,2"/><path id="path3412" class="cls-2" d="M406.45,61.43a15.6,15.6,0,0,1-3.75-1c1.13-.65,3.68-.92,3.75,1"/><path id="path3414" class="cls-2" d="M407.7,58.2c.75-1.13,1.95-2.56,3.5-1.86-.51,1.67-2.18,1.38-3.5,1.86"/><path id="path3416" class="cls-2" d="M408.08,61.06l-1-1.12a9.94,9.94,0,0,0,2.64-.5,1.6,1.6,0,0,1-1.63,1.62"/><path id="path3418" class="cls-2" d="M409.21,59l-1.25-.5a2.73,2.73,0,0,1,2.5-.25l-1.25.75"/><path id="path3420" class="cls-2" d="M410.82,59.32c-.21-.9.26-1.06,1.39-.5l-1.39.5"/><path id="path3422" class="cls-2" d="M411.2,55.22H410A1.74,1.74,0,0,1,412.07,54l-.87,1.24"/><path id="path3424" class="cls-2" d="M411.83,52c-1.29-.4-1.16-.81.38-1.24-.13.42-.25.83-.38,1.24"/><path id="path3426" class="cls-2" d="M412.07,52.61a19,19,0,0,0-3.24,2.49,3.64,3.64,0,0,1,3.24-2.49"/><path id="path3428" class="cls-2" d="M412.33,51.87a1.45,1.45,0,0,1,1.25-1l-1.25,1"/><path id="path3598" class="cls-2" d="M355.08,25.55l-1.25-.38a4.45,4.45,0,0,1,1.25-1c.56.54.56,1,0,1.37"/><path id="path3600" class="cls-2" d="M371.21,25.92c-.32-.93-6.22-2.22-3.16-3.19,1.63-.52,1.7,1.21,2.66,1.08,1.58-.22,1.84-2.07,3.24-2.61.85,3.33.47,3-2.74,4.72"/><path id="path3602" class="cls-2" d="M387.82,31.51a10.23,10.23,0,0,1,1.63,2.6,3.59,3.59,0,0,1-1.63-2.6"/></g><path id="co" class="cls-2" d="M168.74,164.24l-1.38-.38c.49-3,3.7-3.9,6.13-2.48,1.32-2.53-2-4.92-.66-7.5,1.66-3.31,5.4-3.14,8.53-3.67.6-.1.39-1.54,1.2-1.05.6.35,1.95.67,2-.38,0-2.08,2.75-4.67,1.09-6,3-.08,3.53-3.89,4.41-5.91a8.78,8.78,0,0,1,3.47-3.65c-1.76-1.43.32-1.65.87-3.11-1.23,0-2.79,1.06-3.25-.74a2,2,0,0,0,1.63-2c-1-.33-2.87,2.19-3.07.25s1-2.43,2.57-3.23c-2.52,0-1.37-3.3-1-4.66.68-2.68.09-6.28-.17-9-.2-2.07-1.13-4-1.27-6.1-.08-1.13,3.55-1.57,2.94-4.21-.37-1.57-4-5.19-1.6-6.1,2.18-.82.31-5.41-.63-6.46-1.91-2.12-2.15-5.28-4.21-7.07-1.35-1.17,0-2.65.79-3.72.95-1.29,0-3,1.17-4.07a7,7,0,0,1,1.38,2.48c2.67-1.85,6.46-5.48,5.23-9.07s-3.63-4.47-1.36-7.94a63.78,63.78,0,0,1,3.81,5.76c1.15,1.9,4,2.48,1.44,4.79,3.39,3.86,1.73-7.21,1.25-8.39-.69-1.71,7.23-5.64,8.24-7,1.27-1.74,2.18-4.65,4.31-5.57,1.21-.52,4.06-.22,4.74-1.57,1-1.9-.91-2.59-.51-3.77.69-2.09,1-4.72,2.22-6.58-1.84-.19-1.34-.79-.09-1.43s.7-2.13.67-3.11c-.08-2.28,3.79-2.92,3.79-3.72,0-1.19,4.72-5.81,5.82-5.78,2.17.05,4,2,6.18,2-1.83-.24-1.57,1.73-3.25,1.73,1.28,4.7,4.06-1.55,4.7-3.24,1.59-4.22,3.47-3.92,7.95-3.18,6.11,1,8.05-2.93,12.87-5.8,2.65-1.58,10.35-3.45,8-8,1-.3,3.87-1.21,2.25.87,1.87-.29.69-2.14,2.75-3.07,2.47-1.11,4.65-1.11,6.76.64,7.21,6-8.31,8.42-10.64,11.37-1.24,1.57-1.71,3.87-3.18,5.24-1,.95-2.69.77-3.6,1.79a33.64,33.64,0,0,0-4.62,7.23c-1.65,3.46-1.72,7-2.65,10.67A30.4,30.4,0,0,1,246.73,51a7,7,0,0,0,5-2,6,6,0,0,1,.38,2.61c3.78-1,2.51,5.69,4.43,8.12,2.75,3.46,3.5,5.5,1.89,9.75-.8,2.14-2.09,6.71.82,7.8,3.3,1.23,1.55,5.14,4.95,5.93,1.37.32,2.69-.54,4-.69,2.2-.23,4.19,1.23,6.4,1,1.95-.18,3.6-1.56,5.6-1.52,1.77,0,3.1,1.74,4.78,2.13,1.23.29,2.38-.74,3.51.24,1.48,1.29,2.48,3.65,3.58,5.25s1.94,3,2.86,4.53c1.18,2,1.66,1.43,3.45,1.94,2.59.75,5-1.42,8.36-.07,1,.41,3.31-.59,4.43-.61,2.45-.06,4.54.13,6.68-1.16,2.44-1.47,6.46,1.42,5.18,4-.73,1.45-2.51,2.57-2.83,4.2-.39,2,.42,3.05-1.5,4.34-2.55,1.73-1.54,8.67-1.79,11.48-.3,3.35,1.1,6.9,1.73,10.43.47,2.66,5.61,6.17,4.77,8.89-1,3.33-7.35,4.64-7.21,8.64,2.29-1.72,7.9,4.55,8.63,6.45-.16.52-.12,1-.23,1.57.29,1,1,1.92,1.05,3,0,2.15,1.26,4.43,1.8,6.56.21.85,1.33,4.11,1.57,5.42s-.48.46-1.52.79c-1.75.54-2.29-.29-1.86-1.3.71-1.67-.3-12.59-4.67-12.42-1.71.06-6.35,8.85-7.65,4-.49-1.8-2.82-2.62-2.56,0,.29,2.94-3.47,1.86-5.49,1.86h-9.05c-2,0-4.15-1.17-6.11-.31-2.94,1.29-.6,7.83-.9,10.24,2.37-1.59,7.95-.21,9,2.4.39,1,.62,4.21-1.23,4-1.15-.1-1.84-1.61-3.07-1.4-2.72.49-7.48,1.23-7.68,4.38-.24,3.85-.58,9.22,2.76,11.74,1.68,1.26,3.65,2.36,3.56,4.76s1.1,3.18,2,5.12c2.06,4.41-.6,10.43-1.23,14.94-1.51,10.85-1.26,22.65-4.63,33.12-.81-2-2.41-3.44-3.84-5-1.64-1.8-3.71,0-5.6-1.07s2.67-8.33,3.28-9.37c1.19-2,4.77-6,2.95-7.9-.79-.84-1.59-3-2.86-2.59-2.26.78-4.83-2.8-5.4-3.27-2.17-1.78-4,0-6.29,1.12s-3.63-1.79-5.64-2.13c-1.22-.2-4.69,5.15-8.76,3.92a9,9,0,0,0-4.17-.19,6.39,6.39,0,0,1-5.65-1.41c-1.5-1.16.08-4.23-.46-6-.74-2.4-4.57-1.1-5-3.51a25.64,25.64,0,0,0-1.87-5.27c-.72-1.68-2.92-1-4-2.45a5.61,5.61,0,0,0-3.36-2.56c-1.93-.64-3.06-3.22-3.2-4.95-.28-3.28-6.33-8.54-9.42-9.44-.59-.17-1.21-.86-1.74,0s-.55.91-1.77.37c-1.8-.82-4.58-1.79-6.1-3-1.19-.92-6.66-7.79-7.31-2.9-.34,2.54-10-.7-12-1.05-3.25-.58-.86-3.31-3.25-4.32-2.1-.89-1.17-2.67-3.87-2.7-2.13,0-6.33-2.37-7.9-3.66a40.7,40.7,0,0,1-6.82-7.58"/><path id="sr" class="cls-1" d="M450.82,134.69c-1.43-.85-3.86-6.06-3.84-7.75,0-2.48.3-8.64.31-10.89,0-4.21,5.49-3,8.28-3,1.32,0,3.76-3.57,1-4.36,2.82-3.36,1.7-10.74,7.83-9.9,1.93.27,12.25,1.16,11.28,4.53,1.35-2.64-.75-4.49,3.54-4.47,1.59,0,6.6-.21,6.7,2.24.83-1,2.44-.46,3.51-.5-.27-.18-3.72-1.45-3.21-1.8,2.28-1.55,8.26.84,10.72,1.25,4.32.72,4.12,3.71,2.24,6.88-2.05,3.46-4.88,5.43-4.71,9.82.14,3.85-.28,8.42,1.6,11.92,1.49,2.78,5.18,5.13,3.19,8.71a16.9,16.9,0,0,0-1.74,4c-.34,1.37-.09,3.28-.49,4.71-1,3.48-3.67,7.36-4.83,7.42-1,0-4.42-2.45-4.91-3.05-1.67-2.1-5.28.45-7.69.89-1.95.35-2.29.78-4-.17s-1.7-.19-2.51,1.06c-1.8,2.77.64,2.63,1.18,5.68.69,3.85-6.05,1.71-7.56.75a29,29,0,0,1-3.95-2.54,3.58,3.58,0,0,1-1.27-3.11c0-2.67-4.3-6.18-4.3-8.81,0-1-.43-6.16-1.72-6.32-.92-.12-2.47.84-3.24-.12s-.79-2.36-1.39-3"/><g id="ar"><path id="path4200" class="cls-1" d="M464.06,770.66c.2-.87-.21-1-1.23-.38l1.23.38"/><path id="path4202" class="cls-1" d="M466.2,773.26a1.68,1.68,0,0,0-2.63-1.5,9.39,9.39,0,0,0,2.63,1.5"/><path id="path4518" class="cls-1" d="M327.34,624.51c.24-1.25,1.68-1.55,2-2.71.39-1.58-.54-3.91-.46-5.61.2-4.81,2.9-6.8,4.66-10.89,1.15-2.66,1.13-5.39,1.74-8.16a12,12,0,0,1,1.4-4.06c.78-1.17,2.24-.23,3.46-.78,5.17-2.37-.16-5.49-1.89-8.19-2-3.07,1.51-5,.42-8-.78-2.12-6.92-13-1.67-13.21-.53-1.34-3.35-4.51-2.93-5.83a10.33,10.33,0,0,1,6-6.63c2.63-1.16,6.88-2.2,8.13-5.09s1.05-6.81,1.56-9.9a16.44,16.44,0,0,0-.72-5.91c-.36-.84-2.31-.28-2.11-1.16,1.07.08,4.17-7.65,7.35-9.24,3.51-1.74,3.7-2.1,4.11-6.28,2.83.56,4.26,3.41,6.79,4.52,2.9,1.27,6.32-.36,9.35.11,7.23,1.09,6.93,6.56,10.61,11.65.24-2.3.19-4.49,1.12-6.66.51-1.17,1.32-5.36,2.53-5.83.92-.37,2.65-.18,3.73-.45,2-.48,4.27-.1,6.3-.1,1.2,0,3.85-.64,4.23.71.51,1.82,4.19,4,5.54,5.32,1.55,1.54,2.64,1.75,3.6,3.76a24.69,24.69,0,0,0,2.84,4.52c2.51,3.18,6.71,5.42,10,7.75,1.87,1.33,2.78,3.22,4.49,4.64s3.79,1.23,5.64,2a16.51,16.51,0,0,0,6.87,1.63c2.09,0,3.58,1.88,5.31,2.76,4.48,2.29,8,6.62,12.94,8.2,1.46.47,3.19.62,4.36,1.69,1.7,1.57,2.44.65,4.18,1.69s3.9,1.15,5.16,2.73c.89,1.12,1.87,2.13,2.75,3.26,1.73,2.23-1.55,4.58-2,7.17-.66,3.84-4.13,4.85-3.33,9.38.74,4.13-2.36,5.41-3.27,8.93-.44,1.76-1.07,1.13-.12,3.23a14.19,14.19,0,0,1,7.93-.49c4.7.9,9.1,3.64,13.7,2.16,1.44-.47,2.13,1.73,3.62.67s3,1.32,4.12,1.76c.82-1.69.94-4,3.25-4.34,1.77-.25,2.67,1.75,4.2,1.55,2.43-.32,2-3.23,2.64-4.84.68-1.84,4.61-1.65,4.42-2.72a13.09,13.09,0,0,1,2.53-3.63c1.73.28,1.39-3.74,1.6-5.15a22.35,22.35,0,0,0-.37-8.66c-.74-2.83,1-1.86,2.6-.89.35-2.25,3.35-2,4.93-1.47,2.74,1,3.31,3.79,4.2,6.24a24.24,24.24,0,0,1,1.73,9.12c.05,1.93.54,3.68.25,5.63-.17,1-.33,2-.49,3a1.89,1.89,0,0,0-1.77.19c-2.07,1.17-3.41,2.72-5.66,3.63-1.13.46-4.85,1.75-5,3.24-.2,2.28-2.73,2.48-4.28,3.47-.9.58-1.06,1.82-1.83,2.58a47,47,0,0,0-3.59,3.15,1.52,1.52,0,0,1,1,2.25c-2.3-2.36-6.84,7-8.13,8.86-2.24,3.19-2.83,9.7-7,11.38-1.89.75-1.75,3.29-2.67,4.78a3.08,3.08,0,0,1-2.16,1.42,3.85,3.85,0,0,1-1,4c-2.82,2.49.58,2.81.85,5.47.14,1.32-.7,1.55-.76,2.59a13.94,13.94,0,0,0,.21,2.74,5.9,5.9,0,0,1-.54,3.39c-1.11,2.2,1,1,.81,3.18-.24,2.69-1.79,3.2-1.28,6.13.43,2.52,1.95,3.46,1.13,6-.74,2.3.83,5.13,2,7.05,2,3.35-2.52,2.12-2.34,4.07.23,2.53-1.29,5.11-.09,7.67.67,1.43,6.1,9.17,1.73,9,2,1.59,2.2,3.66,4.57,5.13a68.58,68.58,0,0,0,7.89,4.1c4.49,2.07,10.8,5.57,8.36,11.09-1.76,4,3.54,12,8.32,10,1.88-.78,2.71,4.85,3.11,5.85,1.18,3-.85,6.41-2.09,9.12-1.15,2.49-4.07,6-4.16,8.77-.09,2.91.19,3.77-2.51,5.69-4.91,3.48-10.54,5.26-16.38,6.43-7.05,1.41-13.88,3.47-21.11,3.79a55.92,55.92,0,0,1-7.88-.17c-3.12-.28-5.24-2.26-8.24-2.65a6.64,6.64,0,0,0,1.68,2.08c.77.7-.08,2.22.36,3.09.25.49,5.94,4.68,2.34,3.28,1.66,1.21,2.45,2.06,2.82,4.12.26,1.48.49,3.94-1.81,2.71a17.84,17.84,0,0,1,.71,4.57c0,1.26-1.34,2.35-.4,3.47a24.19,24.19,0,0,0,2.42,2.09c1.21,1.07.58,2.81,2.26,1.91-1,6.09-7.26,7-12.43,7.48-6.85.61-12.45-4-19.19-5,2.79-.54-.14-1.54-1-1.08a4.08,4.08,0,0,0-1.94,3.36c-.14,3.65,4.34,6.3,5,9.89.56,2.91.62,6.52,3.88,7.76,1.67.63,6.23,1,4.94,3.78.7.17,7.11.89,6.68-.77-.35-1.35-3.31-1.4-4.32-1.95,2.14.32,3.28-1.86,5.26-2s4.16,2.7,4.5,4.46,2.39,4,1.25,5.71c-.79,1.16-3.72,1.52-5,1.37-2.09-.25-1.75-2.62-2.8-3.65-1.7-1.69-4-2.37-6.13-1-5.53,3.67,3.59,6.67,6.79,5.87-.27,1.73-2.13,2.3-3.53,2.87-2.76,1.13-2.65,2.38-3.72,4.83s-1.29,3.41.48,5.79a6.53,6.53,0,0,1,1.57,2.91,4.24,4.24,0,0,0,0,2.18,3.49,3.49,0,0,1,1.17,2.52c-.08.46.15,2.16-.54,2.34-1,.26-2.32.67-2.45,1.89-.23,2,2.89,2.37,2.56,4-.37,1.76-12.79-.74-10.13,3.74-5.37-1.13-6.79,5.27-7.53,9.16-1.24,6.51,3.06,9.09,8,12.4,2.42,1.63,4.52,3.78,7.23,5,3.46,1.5,7.65-.53,10.93,1.4,4.58,2.69,5.28,11.71-1.87,10.8,1.32.53,2.27-.64,3.51-.74,1.89-.16,2.63,1.12,3.75,2.36-1.1.13-1.45.77-.89,1.73-2.06-.42-6.21,4.87-7.49,6.13a26.62,26.62,0,0,0-4.2,5.24c-.83,1.36-1.65,2.16-1.57,3.84.06,1.33.19,2.6-1,3.55a1.64,1.64,0,0,0,2-1.38c.13,3.69,4.22,10.1-1.34,11.86-4.09,1.3-5.4-4.88-8.91-5.51.9.33,3.29,2.15,2.5,3.34-.59.89-3,.12-3.88.86,3.43-1.39,4.88.87,7.89,1.5-.38,2.29-4,2.17-4.84,4.7-1.12,3.41,1.29,5.62-.67,9.08,2.54-3.12,6.21,3.73,7.13,5.53,1.42,2.75-4.34,1.14-5.76,2.3,1.49-.48,5,.91,5.63.54,2.05-1.2,3.64,1.54,5.2,2.77,3,2.38,6.28,4.12,7.68,7.61-.74-1.25-2.43-1.19-3.67-1.32-2.23-.24-4.26-1.44-6.39-2a60.38,60.38,0,0,0-16.69-2.22h-7.39c-2.08,0-6.44.84-8.23-.27-2.79-1.73-5.14-5.61-8.75-6.06,1.14-1.66.09-4.37-1.36-5.42-1.91-1.38-.43-3.19-1.46-4.89-.63-1.05-2.6-3.78-4.17-3.06-1.22.55-2.29-.23-3.51.08-.91.22-1.39,1.31-2.17,1.75-1.64,1-4-3.39-4.49-4.42-1-2-5.15-3.44-5.48-5.51-.18-1.1-.76-1.13-1.25-2.05-.39-.73-.07-1.65-.36-2.43-.41-1.09-1.72-1.49-2.12-2.6s-.06-2.57-.26-3.85c2.09.34,2.24-.87,2.76-2.48.29-.92-.26-1.66.49-2.48s1.95-.22,2.64-1c1.34-1.55-.1-4.08-1.14-5.45-1.2-1.58,1.95-1.7,2.13-3s-1.92-3.23-2.95-4c-2.08-1.46-2.38-2.4-2.37-4.89,0-1.71.43-7.77,3.44-7.31-.61-1.37-2.29-1.5-2.22-2.93.05-.92-.9-1.66-.49-2.62.29-.68,1-1,1.36-1.69,1.36-2.74-3.33-7-5.26-8.4,1.69-.08,2.71-3.3.85-3.82-1.33-.38-3.5-3.43-2.07-4.73,1.21-1.11,1.58-.37,2.43-2.16.72-1.52,1-1.55-.39-2.86a33,33,0,0,0-3.89-3.19c-1.93-1.36-4.65.07-6.41-1.84-1.49-1.62,8.19-.92,9-2-.43.6.05-3.16.25-2.61-1.47-4.09-8.12.09-9.75-3.92-.41-.65-.81-1.31-1.19-2-.28-1.07,1.38-2,.66-3-.91-1.3-3.2-2-1.92-3.48,1.6-1.79-6.32-3.21-3.46-5.76,1.54-1.37-.39-2.47-1.79-2.71-2.67-.45-3.7-1.45-4.53-4-.64-2-.7-4.29-1.39-6.14-.52-1.4-2.64-2.6-.62-4,1.25-.87,3.44-.16,1.86-2.27-1.35-1.81-4.28-4.31-4-6.76.44-4.24-3.95-8.18-4.69-12a8.58,8.58,0,0,1,.53-5c1.13-2.23-2.07-2.78-2.43-4.67,3,1,1.06-3.3.2-4.28-1.73-2-1.23-3,1.17-3-1.52-1.48-.74-5.78-1.44-7.83-1.09-3.14,2.08-3.74,4-5.48,2.09-1.88-2.44-4.9-3.08-7.22-.8-2.93-5.38-6.52-4.91-9.41.31-1.95-1.65-6.66-2.56-8.52s-1.49-6.4.11-8.13c.85-.93,1.63.07,2.14-1.06.39-.86.3-2.1.95-2.82.52-.56,1.89-.92,2-1.77a13.07,13.07,0,0,0-1.35-6c-.67-1.54-1.47-3-2.23-4.53-.19-.37-1.71-1.37-1.71-1.54,0-1.35,1.68-.75,1.85-2.29a22.3,22.3,0,0,0-.28-4.54c-.15-1.46.21-8.28,2.45-7.89s-.9-5-1.09-5.44c-.84-2,.24-8.93-2.14-9.7-1.35-.43-.53,1.75-2.39-.54-1.36-1.69-1-2.5-.69-4.37.23-1.47-.84-2-1.84-2.73-1.3-.94-.88-1.83-1.29-3.16-.91-2.91-3.86-4.71-4.7-7.64,2.79,1.28-.31-2.52-1.38-3.06-2.56-1.3-3.41-5.46-3.52-8-.14-3.07,2.22-1.93,1.55-5.2-.5-2.4,1.95-6.78.22-8.73,4.23,2.81,2.63-4.44,2.06-6-.84-2.26-4.78-8.24-3.44-10.41"/><path id="path4520" class="cls-1" d="M460.81,968.94c2.53,2.26,5.71,3.82,7.64,6.71-1.74-3.19-5.75,2.37.88,2.43,2.48,0,3.23,2.77,4.82,4.18,1.94,1.73,4.8,2.15,6.62,3.77,4.82,4.26,11.81,6.26,17.65,8.9,2.66,1.21,6.52,2.72,9.48,2.63,1.45,0,2.89-.34,4.35-.27,2,.09,1.59,2.23,1,3.93-1.64-.9-3.58.66-5.52-.08-2.12-.82-5,1.89-7.71,1.33a46.26,46.26,0,0,0-8.69-1.45c-3.46-.11-7.88.06-11.13-1.29-2.08-.86-3.34,1.27-5.13-1.36-1.65-2.41-2.58-5.43-3.89-8-3.56-7-7.41-14.12-10.42-21.4"/><path id="path4874" class="cls-1" d="M520.56,1001.1c1.7-2.1,5.43-1.52,7.74-2.36-3.14-.8-6.08.25-9,1.36a7.51,7.51,0,0,0,1.25,1"/></g><path id="py" class="cls-1" d="M405.7,519.71a124.43,124.43,0,0,0,2.49-15.12,42.69,42.69,0,0,0-.27-8.15c-.18-2.68,1.29-5,2.39-7.35,1.56-3.31.71-8,5.74-8.67A93.4,93.4,0,0,0,431.72,477c8.25-2.54,14.06-2.06,21.53,2.08,3,1.64,7.13,3.92,7.36,7.75.14,2.29,1.92,9.31,4.34,10.05-1.55,1.82.95,2.49,1.37,3.84.32,1,0,4.29-.18,5.46a9.57,9.57,0,0,0-.47,2.54c.15,1.15,1,2.28.59,3.48-.47,1.43-1.27,3.27-1.11,4.75.09.88,9.3,3.56,10.65,3.58,2,0,4.34.85,6.27.76s1.71-4.33,3.58-3a19,19,0,0,0,7.11,3.13c1.69.23,1.88.7,2.2,2.54s1.67,3.47,1.94,5.68c.34,2.84,2.87,4.33,3.2,7.15.37,3.21,1.16,9.74,5.59,9.31,2.46-.24,4.13-2.08,6.49-2.53,2.18-.42,3.83,2.17,5.38,3.23a1.86,1.86,0,0,0-.54,2.61c1,1.94-.64,3-.12,4.86s-.64,5.42-1,7.32a30.9,30.9,0,0,0-.59,7.63l1.8,12c.16,1.08-.72,3.87-2.22,4.16-.74.13-2.79,3.06-2.49,3.77s-2.94,1.24-3.34,1.44c-.8.4-1.95,1.27-1.7,2,.35,1.12-1.65,5.62-3.28,4.22-3.4-2.93-5.25-.46-6.76,2.68-1-.37-2.27-2.08-3.35-1.86-1.44.3-1.72,1.57-3.1-.19-1-1.24-2.21.53-3.55.57a15.12,15.12,0,0,1-4-.75c-4.05-1.08-8-2.58-12.28-2.15-2,.21-3.25,1.62-4-.81-.14-.46,1.39-4.81,1.85-5.11,4.32-2.83-.11-10.11,4-12.1,1.88-.92,1.85-5.27,2.88-7.17,1.85-3.39-.25-5-3.12-7.17-2.24-1.69-5.58-1.65-7.56-3.3a8.8,8.8,0,0,0-4.14-1.62c-1.8-.34-3.41-1.53-4.94-2.4a67.87,67.87,0,0,1-9.12-6.37c-3.43-2.73-6.61-2.09-10.46-3.62-2.38-1-5.67-1.32-7.84-3.55-3.13-3.24-8.05-6.21-10.28-8.2-2.68-2.39-5.53-5.48-6.23-7.46-1.18-3.33-4.33-3.8-6.39-6.58"/><path id="gy" class="cls-1" d="M403.2,99.18c1.27-2.48,3.39-3.68,3-7.49-.25-2.58.93-3.35,2.5-4.21.36-.19,1.26-1.74,2.45-1,1.52,1,1.43-.08,2.75-1,1.16-.8,3.41-1.37,4-2.48s-.3-2.44-1.56-2c-3.13,1.11-1.47-2.06-2.79-3.78-1.2-1.56.3-3.36,1.31-4.59,1.26-1.55,1-1.47,2.82-2.39,2.43-1.23,3.76-3.68,6-4.75,3-1.44.6-2.53-.76-5,2,2.37,5,3.94,7.38,6-1.14-1.73-3.49-2.14-4.38-4.1A24.76,24.76,0,0,1,434,68c1.73,1.9,3.91,5.58,6.05,6.82,2.39,1.38,3,5.82,2.16,8.15-.63,1.75-1.54,2.95-1.77,4.87-.19,1.67-.23,3.48-1.23,4.92,3.31-.6.81-8.63,5.91-6.84,3.82,1.35,8.52,4.06,9.45,8.45,2.5-2.23,4.26,2.37,4.61,4.15a14,14,0,0,1-2.59,10.13c3.35.94.47,3.32-.29,4.22s-9.47-1.86-9,3.85a32.81,32.81,0,0,1-.28,9.13c-.36,2.29,1.71,6.83,3.39,8.38s.57,3.48,3.15,3.85c.54.07,1.94-.59,2.27-.08,1.07,1.65,1.2,3.71,1.5,5.59.54,3.51,4.22,6.37,4.22,9.82s4,3.4,5.26,5.53c-4.28,2.72-8.43-2.76-12.52.58a22.38,22.38,0,0,0-1.71,1.94c-1.13,1.14-2.55.64-3.92,1.11-2.5.87-2.61,2.1-5.56,2.14-.92,0-1.44.72-2,1.3a3.32,3.32,0,0,0-1.25.5A9.26,9.26,0,0,1,440,168c-.65,1.29-4.27,1.86-5.59,1.41-.91-.31-.32-1.36-1.62-1.37-1,0-3.12-.78-3.51-1.84-.63-1.71-3.09-4.36-5-4.61.17-.41.34-.83.5-1.24-1.75.11-1.55-1.45-1.33-2.64.37-2.08-.18-2.88-1.44-4.38-2.08-2.51-2-7.27-1.34-10.24.5-2.28,2.2-4.38,2.21-6.79,0-2.09.6-1.93,1.81-3.7.76-1.1,2.39-3,1.67-4.35-.57-1.06-2.08-2.53-2.08-3.79s.64-2.36-.76-3c-1-.42-3.45-.46-4-1.45s1.4-3.75,1.59-4.83a5.59,5.59,0,0,0-1.37-5.21c-2.16-1.94-5.72,1.12-8.34-.17-3.12-1.53-6.78-7.66-8.2-10.69"/><path id="uy" class="cls-1" d="M485.32,643.51c1.13-1.58,3.23-3,2.36-5.22,1.68,1.21,3.38,2.11,5.45,1.06,1.14-.58,1.17-2.35,2.64-2.55,2.7-.37,5.36,2.91,7.17,4.47,2.38,2,6.92,3.78,7.34,7.28.15,1.26-.09,3.36,1.72,2.91,1.31-.32,3.61-1.53,2.82-3.24,2.2.57,6.45,7.44,8.24,6.8s2,.72,3.33,1.55c1.8,1.12,3.58,1.12,5.18,2.74a22.55,22.55,0,0,0,3.56,3.55c1.85,1.2,4.1,1.39,5.81,2.86,3.14,2.7,4.09,6.14,8,8.07,4.44,2.19,2.33,3.46.21,6.73-1.53,2.38-.46,8.59,1.94,10.13,1.53,1-1,6.79-2,8.53-.87,1.45-3.73,7.54-6.27,5.29,1.34,1.69-1.63,2.58-2.72,3-3.1,1.24-4.15,1.33-7.48.63-2.67-.56-5.52-1.9-8.14-.59a10.62,10.62,0,0,1-3.59,1.38c-1.93.18-1.82-1.17-3.07-1.84-2.16-1.15-4.91-.73-7-2-2.89-1.74-4-3.53-7.72-3.34-2.37.12-4.26,1.11-6-.81-2.34-2.58-5.88-4.29-7.76-7.24-1.3-2.07-3.37-10.88-.39-11.7s.79-4.38-.11-6a36.65,36.65,0,0,1-1.62-3.62c-.42-1,.94-1.85.44-3.28-.44-1.24-2.67-4.85-1.59-6.1,2.39-2.75-.7-4.4.32-6.25.7-1.29-.19-7.29.1-7.5,2.2-1.54-.64-3.7-1.14-5.74"/><g id="cl"><path id="path6426" class="cls-1" d="M470.93,1008.91a1.64,1.64,0,0,0-1.23-.74l1.23.74"/><path id="path6432" class="cls-1" d="M495.18,1015.12c0-.33.08-.66.13-1a3.45,3.45,0,0,0-2.63.36,3.42,3.42,0,0,1,2.5.62"/><path id="path6440" class="cls-1" d="M499.19,1015c.21-.85-.21-1-1.25-.5l1.25.5"/><path id="path6442" class="cls-1" d="M501,1015.26a3.07,3.07,0,0,0-1.13-1.24l1.13,1.24"/><path id="path6428" class="cls-1" d="M495.57,1004.32c-2-2.61-12.48-4.9-14.76-1.49,1.92-.94,2.3,1.59,3.33,2.52s6.55.76,3.54,1.09a18,18,0,0,0,2.65.12c.7-.16-.16-.83.17-1.11,1-.86,2,1.43,2.57,1.69,1.62.76,3-1.47,2.5-2.82"/><path id="path6430" class="cls-1" d="M491.94,1011.15l.87-1.12c-1.39-.52-1.68-.14-.87,1.12"/><path id="path6434" class="cls-1" d="M497.44,1013.51a3.61,3.61,0,0,0-1.75-2.12,3.85,3.85,0,0,0-.87,1.38c.87.26,1.74.51,2.62.74"/><path id="path6436" class="cls-1" d="M495.31,1002.34c.13,1.08,1.81.95,2.51,1a8.36,8.36,0,0,0-2.51-1"/><path id="path6438" class="cls-1" d="M498.57,1005.69a2,2,0,0,0-1.63.88,3.4,3.4,0,0,0,2.5.36l-.87-1.24"/><path id="path6444" class="cls-1" d="M502.18,1006.43c1-1,.2-1.78-1-1.24a8.41,8.41,0,0,0,1,1.24"/><path id="path6364" class="cls-1" d="M404,977.63c-.95,0-1.34-.21-1.37,1a13.32,13.32,0,0,0,1.37-1"/><path id="path6372" class="cls-1" d="M408.83,982.47c.29-.41.59-.82.88-1.24q-2.32-.63-.88,1.24"/><path id="path6374" class="cls-1" d="M412.07,979.61a16.82,16.82,0,0,0-1.87.26c.32.42.66.83,1,1.22a23.14,23.14,0,0,0-2.62-.6c1.12.41,5.16,1.77,3.49-.88"/><path id="path6376" class="cls-1" d="M424.32,990.17a11.9,11.9,0,0,1,4.5-2c-1.34-.47-1.57-2.69.25-1.86-.47-2.59-3.14-1.31-4.14-2.9-.74-1.17-2.95-2.27-2.74-.08-.55-1.05-2.46-2.92-2.62-.5-.71-1-3-4-4.5-2.85.24.42.49.84.75,1.24a7.68,7.68,0,0,0-2.62,0c1.72.86,3.19,2,5.12,2.35-1.92.12-5.07-2.64-6.37-.12,1-.27,1.67.15,1.63,1.24,3.24-1.44,2.3.66,3.58,2.55.67,1,1.94,1.39,2.57.2.87-1.64,2.8-1.71,4.48-1-.43.41-.84.82-1.25,1.24.45.34.9.68,1.37,1a12.18,12.18,0,0,1-2.62.86,5.27,5.27,0,0,1,2.61.63"/><path id="path6378" class="cls-1" d="M419.33,990.17c0-1.57-1.68-1.65-2.62-.87a2.45,2.45,0,0,1,2.62.87"/><path id="path6380" class="cls-1" d="M429.83,989.3l-.76.12c.73,1,.45,1.62-.75,1.75,1.76,1.79,4.13-1.09,1.51-1.87"/><path id="path6382" class="cls-1" d="M430.58,994.39c.35-.78.31-1.19,1.37-1a1.92,1.92,0,0,0-2.62,0,7.13,7.13,0,0,0,1.25,1"/><path id="path6384" class="cls-1" d="M431,986.2a2.86,2.86,0,0,0-1.25.48l1.25-.48"/><path id="path6386" class="cls-1" d="M435.82,987.44c-1.1-.38-1.88.68-2.44-.53-.5-1-2.76,1.11-3.55,1.15.62,2.06,6.15,2.2,5.36,4.85,3.42.06.09-2.47-.74-3.49a2.06,2.06,0,0,0,2.5.62,4.67,4.67,0,0,1-1.13-2.6"/><path id="path6388" class="cls-1" d="M433.2,992.53a10.32,10.32,0,0,0-1.37-1.12l1.37,1.12"/><path id="path6390" class="cls-1" d="M433.44,995a2.57,2.57,0,0,0-1.23-.38l1.23.38"/><path id="path6392" class="cls-1" d="M434.2,994.51c.51-1.28.09-1.56-1.25-.86l1.25.86"/><path id="path6394" class="cls-1" d="M440.7,988.43a7.56,7.56,0,0,0-4.5-.49c.3.24,3.9,6.82,3.87,2,0,2.93,3.33.13,2.74,3a10.72,10.72,0,0,0,2.76-1c-.64-.91-3.67-4.56-3-1.12a3.17,3.17,0,0,1-1.87-2.36"/><path id="path6396" class="cls-1" d="M438.46,999c-.14-.87,0-1.23-1.13-1.24l1.13,1.24"/><path id="path6398" class="cls-1" d="M440.33,991.65c.11.76.1,1,1,1.26l-1-1.26"/><path id="path6400" class="cls-1" d="M450.69,991.53c-.47-1.54-2.05-2.43-2.74-3.85a1.66,1.66,0,0,0,2.5.12c-2-.92-1.77-3.77-3.63-4.7-2.74-1.38-1.45,2.35-.24,3.22a3.45,3.45,0,0,0-2.64.12,10.21,10.21,0,0,0,6.75,5.09"/><path id="path6402" class="cls-1" d="M450.19,1001.72c.13-.33.25-.67.38-1-1.73.22-3.25-.85-5-.36a3.85,3.85,0,0,0,.75,1.24c1-1.43,2.79-1,3.87.12"/><path id="path6404" class="cls-1" d="M452.07,990.42c.35-1.52-.06-1.68-1.25-.5l1.25.5"/><path id="path6406" class="cls-1" d="M458,1005.31c.41-1.11.76-2.07,2.12-1.25-.66-1.77-3.44-1.36-4.88-1.6a2.27,2.27,0,0,0,2.26-1.48c-1.13-.1-1.9,1.11-3,.92a7.41,7.41,0,0,0-3.65-.18c1.18,2.92,5.74.53,7.13,3.59"/><path id="path6408" class="cls-1" d="M453.7,992.15c.25-1.59-1.71-1.28-2.5-.74l2.5.74"/><path id="path6410" class="cls-1" d="M456,1000.1a3.08,3.08,0,0,0-2.63.74,2.56,2.56,0,0,0,2.63-.74"/><path id="path6412" class="cls-1" d="M461.7,1001.22l-1,1.24c1.08-.1,1-.38,1-1.24"/><path id="path6414" class="cls-1" d="M463.45,1005.81a1.84,1.84,0,0,0-1.25-.86l1.25.86"/><path id="path6418" class="cls-1" d="M463.57,1003c2.22-.28,4.81.1,6.62-1.5-1.88-.42-6.18-1.1-7.74.26a6.94,6.94,0,0,0,1.12,1.24"/><path id="path6420" class="cls-1" d="M463.19,1004.2c.59,1.18,3.92,1.61,5,1.37-1.17,2.3,4.69,3.82,6.13,3-.87-.65-1.75-1.27-2.65-1.87-3.34-2.22,2.44-1-1.36-2.24,1.54-.53,3.54,1.43,5.27,1.55s2.8,2,2.1,2.92c1.38-.89,5.26.13,6.8.51,1.79.43,2.11,2.67,4.33,2.11-1.4-1.62-2.52-3-4.62-3.74-1.59-.56-4.12-.24-5.26-1.72,1.36,1.16,3.6.66,5.14.24-3.14-2.15-7.81-.34-10.5-3.35,2.46.95,3.27.61,5.7.65,1.9,0,.81-1.85-.49-2.06a13,13,0,0,0-5.77.82c-1,.31-6.82-.62-4.94,2-.81-2.13-3.65-1.34-4.88-.13"/><path id="path6422" class="cls-1" d="M464.56,1006.69c-1.18.17-1,.5.51,1l-.51-1"/><path id="path6424" class="cls-1" d="M468.45,1008.17c-.27-.76-.27-1-1.25-.86l1.25.86"/><path id="path6318" class="cls-1" d="M382,958.26c1.5-.44.31-2.1-.5-2.48a2.8,2.8,0,0,0,.5,2.48"/><path id="path6322" class="cls-1" d="M385.2,961.49c.75-1.62.48-6.59-2.24-6.21a21.38,21.38,0,0,0,1.37,2.48c-2.29-.47-.32,2.89.87,3.73"/><path id="path6326" class="cls-1" d="M386.45,961.73c.81-1,1.32-4.46-.87-3.85,0,1.36.69,2.53.87,3.85"/><path id="path6328" class="cls-1" d="M389.21,964.35c1.36-1.66-1.86-1.22-2.64-1.38q1.35.64,2.64,1.38"/><path id="path6332" class="cls-1" d="M387.58,960.75a3,3,0,0,0,2-1.37,1.49,1.49,0,0,0-2,1.37"/><path id="path6334" class="cls-1" d="M393.08,959.12c0-1.71-3.86-3.34-5.26-3.22a20.7,20.7,0,0,0,5.26,3.22"/><path id="path6340" class="cls-1" d="M393.58,956.9l.87-.62c-1.37-.77-2.12-2.23-3.5-3,.61,2.09.41,2.71,2.63,3.6"/><path id="path6344" class="cls-1" d="M396.59,965.33a2.16,2.16,0,0,0,1.61-1.12c-1.48-.83-4.6-4.14-6.37-2.22,1.53-.46,2.77.73,4,1.36-3.06-.87,0,1.66.77,2"/><path id="path6346" class="cls-1" d="M411.2,978.49a7.25,7.25,0,0,0,3.37.14c-1.94-.5-3.33-2.08-5.24-2.62,3.91,3.78-5.35-3.72-1.25.12-2.7-2-5.44-2.08-8.52-2.87-2.41-.63-4.41-3.24-7.11-2.58,3.26,1.47,5.54,3.53,9,4.56,1.72.53,3.54.22,5.24.9,1.41.56,2.8,3,4.55,2.35"/><path id="path6348" class="cls-1" d="M394.57,961.73c-.39-.69-.44-.9-1.37-.62l1.37.62"/><path id="path6350" class="cls-1" d="M396.33,957.14c-.11-1.24-1.68-1.58-2.62-1.74a18.61,18.61,0,0,0,2.62,1.74"/><path id="path6352" class="cls-1" d="M400.08,963c-.47-2.46-4.16-4-6.37-4.22,1.39,2.25,4.46,2.57,6.37,4.22"/><path id="path6354" class="cls-1" d="M396.2,958.38c-.57-.51-.11-1-1.25-.62l1.25.62"/><path id="path6356" class="cls-1" d="M400,965.33l.87-.24a4.85,4.85,0,0,0-4.74-2.48c1.27.95,2.78,1.54,3.87,2.72"/><path id="path6358" class="cls-1" d="M397.58,959.87c.89-.7.6-1.11-.87-1.25l.87,1.25"/><path id="path6360" class="cls-1" d="M398.46,962.73c.21-.9-.25-1.06-1.39-.5l1.39.5"/><path id="path6362" class="cls-1" d="M401.57,970.18c1.76-1,1-4.68-1.23-4.27-1.76.31,1.24,3.57,1.23,4.27"/><path id="path6366" class="cls-1" d="M405,975.65a1.9,1.9,0,0,0,1.25.86l-1.25-.86"/><path id="path6368" class="cls-1" d="M409,973.41c-.34-1.71-2.75-1.53-3.87-.87a4,4,0,0,1,3.87.87"/><path id="path6370" class="cls-1" d="M405.7,960.49c1-.36,1.63-1.17,1.13-2.23a1.72,1.72,0,0,0-1.13,2.23"/><path id="path6272" class="cls-1" d="M367.08,929.71c-.95-2.59-3.65-3.86-6.25-4.11.35,1.35,1.63,3.2,3.12,1.74.15,1.77,2.17,1.3,3.13,2.37"/><path id="path6286" class="cls-1" d="M371.21,935.41a6.52,6.52,0,0,1,1.87-2.36c-1.45.94-2.73.84-2.37-1a1.31,1.31,0,0,1-1.68-.3c-1-.8-2.3.17-3.44,0,.93.76,4.24,1.2,4,2.86-1.67.37-1.44-1.8-3.13-1.5a3.42,3.42,0,0,0,.68,2.28c1,.95,3.16-.33,2,1.83a2.89,2.89,0,0,0,2.12-1.87"/><path id="path6290" class="cls-1" d="M371.59,942.48c.39-1.23-.69-2.28-1.27-3.22,1,.5,1.78.14,1.88-1-1.39.33-2.59-.79-3.87.24,1.21.41,1.37,1.29.38,2.1,1.57-.06,1.28,1.87,2.88,1.86"/><path id="path6294" class="cls-1" d="M372.58,936.78a1,1,0,0,0-1.25-.13l1.25.13"/><path id="path6300" class="cls-1" d="M375.08,942.74c.17-1.1-.18-2.43-1.62-2.24a2.83,2.83,0,0,0,1.62,2.24"/><path id="path6304" class="cls-1" d="M376,938.28a3.1,3.1,0,0,0,1-1.87c-1.11.14-1.64.86-1,1.87"/><path id="path6306" class="cls-1" d="M379.45,943.86c.05-1-2.76-3.89-3.74-3-1.83,1.7,2.65,2.94,3.74,3"/><path id="path6308" class="cls-1" d="M380.7,947.09a2.68,2.68,0,0,1,3.51-1.24c-2.11-1.41-2.34-4.44-5.5-4a21.78,21.78,0,0,1,2,2.62,31.52,31.52,0,0,0-4-.62c.11,1.43,2.68,3,3.87,1.85l.12,1.38"/><path id="path6310" class="cls-1" d="M377.84,954.54c1.84-.48.91-3.07,1.11-4.35-.94.72-1.77.31-2.12-.74.06,1.55-.11,3.84,1,5.09"/><path id="path6314" class="cls-1" d="M384.71,943.23c.06-1.47-2.09-2.26-3.14-2.73,2.35,0,.64-.43-.24-1.34s-1.95-1.58-3.37-.88c1.08.62,1.41,1.69,2.12,2.62,1.18,1.56,3.1,1.37,4.63,2.33"/><path id="path6316" class="cls-1" d="M380.32,952.3c1.48-.41,2.24-1.93,2.64-.37a6.27,6.27,0,0,1,0-1.62c.47.28.92.57,1.37.87-1.24-2-2.85-4.35-4.75-1,1.06.34,1.47,1.17.74,2.11"/><path id="path6320" class="cls-1" d="M384.71,948.45c.25-1.4-1.55-1.47-2-2.6-1.2,1.54,1,2.14,2,2.6"/><path id="path6324" class="cls-1" d="M386.45,948.57l.89-.24a17.1,17.1,0,0,0-3.39-3.61c.79,1.31,1.6,2.61,2.5,3.85"/><path id="path6330" class="cls-1" d="M389.83,951.93a2,2,0,0,0-2.37-1.88,4.68,4.68,0,0,0,2.37,1.88"/><path id="path6338" class="cls-1" d="M390,950.81l1.13-.75c-.47-1.12-1.38-1.41-2.26-.49a6.64,6.64,0,0,0,1.13,1.24"/><path id="path6342" class="cls-1" d="M393.2,950.81a1.42,1.42,0,0,0-1.49-1.62,1.42,1.42,0,0,0,1.49,1.62"/><path id="path6206" class="cls-1" d="M358.83,912.19c2.24-2.33-5.53-10.44-8.5-8.82.51.72,2.42,1.6,2.55,2.44.22,1.45,2,1.2-.17,2.05,1.16.47,2.53-1,3.05.39a8.82,8.82,0,0,0,3.07,3.94"/><path id="path6218" class="cls-1" d="M353.47,899.65a1.41,1.41,0,0,0-.5-2,3.81,3.81,0,0,0-.89,1.25l1.39.74"/><path id="path6220" class="cls-1" d="M354.09,912.06c1.73.38,2.8-.94,1.88-2.48-1.13-1.9-2.21-.55-3.77-.12.34,1.51,1.9,1.63,3.13,2l-1.24.62"/><path id="path6224" class="cls-1" d="M354.72,913.56a6.34,6.34,0,0,0,2.86-1.74c-1.49-.47-2.5,1.15-4,.5a11.08,11.08,0,0,0,1.13,1.24"/><path id="path6226" class="cls-1" d="M355.21,898.91c.5-1.24.09-1.57-1.25-1l1.25,1"/><path id="path6230" class="cls-1" d="M358.33,903a3.1,3.1,0,0,0-1.37-3.6,2,2,0,0,0,0,2.48c-.91-.78-3.1-1.17-2.62.74,1.32-1.3,2.6.15,4,.38"/><path id="path6232" class="cls-1" d="M359.22,908.48c3.92-2.89-1.85-5.13-4.5-4.73a17.61,17.61,0,0,0,4.5,4.73"/><path id="path6234" class="cls-1" d="M360.71,917.79c-.15-2.1-4-4-5.75-2.86.49,2.55,4.56.68,5.75,2.86"/><path id="path6236" class="cls-1" d="M358.21,903.87a2.35,2.35,0,0,0-2.62-1.12,8.34,8.34,0,0,1,2.62,1.12"/><path id="path6242" class="cls-1" d="M357.34,917.91c.21-.85-.21-1-1.25-.5l1.25.5"/><path id="path6254" class="cls-1" d="M359,920.51c-.38-1.65,2.65-2.94-.36-3.84.23,1.65-2.92,3.34.36,3.84"/><path id="path6258" class="cls-1" d="M360.71,916.55l1.37-.62a3.84,3.84,0,0,0-3.61-2c.78.84,1.53,1.71,2.24,2.62"/><path id="path6260" class="cls-1" d="M359.58,902.51a12.12,12.12,0,0,0-1-1.36l1,1.36"/><path id="path6262" class="cls-1" d="M360.59,914.18a1.85,1.85,0,0,0-1.13-1.86c-.52,1,.09,1.7,1.13,1.86"/><path id="path6264" class="cls-1" d="M365.46,912.06c2.29-.49-4.27-6.94-5.12-7.93.15.87.31,1.74.49,2.61.38,1,1.35,1.45,1.63,2.48-.95-2.27-3.6-.93-2.32,1.16,1,1.57,3.84,1,5.32,1.68"/><path id="path6266" class="cls-1" d="M361.09,924.48a2.89,2.89,0,0,0-1.25-.74l1.25.74"/><path id="path6268" class="cls-1" d="M371.21,931.07a4.5,4.5,0,0,0,3.75,0,10.75,10.75,0,0,0-1-1.12c2.28,1.57,1.35-2.28-.48-2.61,3.4.65-1.48-3.64-.89-.24-.29-2.9-.45-7.11-2.82-9.24-.9-.8-.37-2.07-1.66-2.48-.89-.28-1.89-4.89-1.89-1.57-1.35-5.31-6.21,2.23-2.62.62-2.86.73-.18,2.51,1.13,1.24-.91,1.16,1.36,4.71,1.61,6a7.8,7.8,0,0,0-2.5-1.62c1.75,3.5-3.06-1.52,0,2.12a2.44,2.44,0,0,0-2.5-1.12,19.53,19.53,0,0,1,2.5,2.48c-1.35-.83-2.3-2.17-3.75-2.86-.21,2.32,2.26,2.72,3.36,4.29s3.08,4.27,5.39,4.4c.12-1.68-1.73-2.32-1.87-3.85s1.52-1.64,1.63-3.1c1.46.18,1.9,1.93-.26,1.48a2,2,0,0,0,1.63,2c-.46.24-.92.48-1.37.74.42,1,1.73,1.12,2.52,1.62,1.73,1.08-1.33,2.27,1.47,1.73-.44.39-.89.77-1.37,1.12"/><path id="path6270" class="cls-1" d="M361.33,912.82c1.37-.77.79-1.39-.62-1.24.21.41.41.83.62,1.24"/><path id="path6274" class="cls-1" d="M361.33,900.27c.32-.61.75-.49.38-1.36-.12.45-.25.9-.38,1.36"/><path id="path6276" class="cls-1" d="M365.46,920.63c.56-2.14-3.06-5.08-3.88-2.77-.32.93,3.33,2.26,3.88,2.77"/><path id="path6278" class="cls-1" d="M363.09,920.39a1.31,1.31,0,0,0-1.25-.5l1.25.5"/><path id="path6280" class="cls-1" d="M364.34,907c1.86-1.32-.53-2.68-1.88-2.61.63.87,1.26,1.73,1.88,2.61"/><path id="path6282" class="cls-1" d="M364.46,901.77c1.48-.45,3.22-.1,4.37-1.36-2.09-1.08-4.17-.26-6.37-.5a2.22,2.22,0,0,0,2,1.86"/><path id="path6284" class="cls-1" d="M368.09,908.84c.31-1.22-1.53-1.85-2.26-2.36-.75,1.61,1.28,1.84,2.26,2.36"/><path id="path6288" class="cls-1" d="M370.71,909.22a2.45,2.45,0,0,0-2.62-1.36,14.78,14.78,0,0,0,2.62,1.36"/><path id="path6292" class="cls-1" d="M371.71,902.27a1.19,1.19,0,0,0-1.25-1.12l1.25,1.12"/><path id="path6296" class="cls-1" d="M373.83,925.48l1.13-.88a4.52,4.52,0,0,0-2.5-1.72,15,15,0,0,0,1.37,2.6"/><path id="path6298" class="cls-1" d="M373.83,903.63a5.21,5.21,0,0,0-1.25-.62l1.25.62"/><path id="path6166" class="cls-1" d="M345.09,868.61a3.38,3.38,0,0,0-1.38-.62l1.38.62"/><path id="path6176" class="cls-1" d="M345.83,869l1.25.24a8,8,0,0,0-.24-2.48,1.42,1.42,0,0,0-1,2.24"/><path id="path6222" class="cls-1" d="M355,871.71c.21-1.1.32-2.85-1.37-2.6a5,5,0,0,0,1.37,2.6"/><path id="path6240" class="cls-1" d="M356.84,872.71a3.07,3.07,0,0,1,1.75-1.62c-1.29-1.53-3.37.27-1.75,1.62"/><path id="path6244" class="cls-1" d="M357.22,869.49a2,2,0,0,0-1.13-1.38l1.13,1.38"/><path id="path6248" class="cls-1" d="M358.09,860.54a3.47,3.47,0,0,0-1.13-1.25c.37.42.75.83,1.13,1.25"/><path id="path6250" class="cls-1" d="M357.46,889.85a1.62,1.62,0,0,0,.87-1.62q-2.13-.22-.87,1.62"/><path id="path6252" class="cls-1" d="M359.7,875.94c.58-1.82-1-3.39-2.62-1.87a7.5,7.5,0,0,1,2.62,1.87"/><path id="path6256" class="cls-1" d="M359.58,873.33a2.36,2.36,0,0,0-1.74-1.48,1.57,1.57,0,0,0,1.74,1.48"/><path id="path6144" class="cls-1" d="M341.34,845c-.64-.26-.53-.69-1.38-.25l1.38.25"/><path id="path6174" class="cls-1" d="M346.72,850c.76-1.12-.74-1.2-1.39-.62l1.39.62"/><path id="path6130" class="cls-1" d="M336.84,811.63c-1.23-.94-1.55-.25-2.16.71-.75,1.17-3.23-1.34-4.21-1.33,2.16,2.19.2,5.13,1.32,6.93,1.87,3,1.57,7.43,3,10.42.64,1.28-.76,2.07-.18,3.48s2.29,1.76,3.58,2.1a26,26,0,0,0,3.39.78c2.36.3.36-3.15.21-3.84,3.63-.43,0-2.93-1.13-4a8.06,8.06,0,0,0,2.5,0c-.45-.82-7.25-5.23-3.51-5.21-2.84-1.66.13-2.63,1.51-3.72a17.19,17.19,0,0,1-4.37-6.33"/><path id="path6132" class="cls-1" d="M332.21,838.32a7.48,7.48,0,0,0,1.26-1,2.07,2.07,0,0,0-2.5,0l1.24,1"/><path id="path6134" class="cls-1" d="M336.34,857.19c.4-1-.2-1.61-1.25-1.24a9.77,9.77,0,0,0,1.25,1.24"/><path id="path6136" class="cls-1" d="M338.47,853.59c-.12-.76-.12-1-1-1.25l1,1.25"/><path id="path6138" class="cls-1" d="M340.35,823.55c.22-1.07-.2-1.11-1.25-.12l1.25.12"/><path id="path6140" class="cls-1" d="M342.08,822.3a2,2,0,0,0-2.62-1.5,7.28,7.28,0,0,1,2.62,1.5"/><path id="path6142" class="cls-1" d="M342.34,853.85c-.53-1.25-1.82-1.18-2.64-.26l2.64.26"/><path id="path6146" class="cls-1" d="M342.22,851.6a2,2,0,0,0,.49-2.1,2.16,2.16,0,0,1-2.62.6,2.17,2.17,0,0,0,2.13,1.5"/><path id="path6148" class="cls-1" d="M341.84,845.52a2.41,2.41,0,0,0-1.25-.12l1.25.12"/><path id="path6150" class="cls-1" d="M342,848a1.18,1.18,0,0,0-1.25-.24L342,848"/><path id="path6152" class="cls-1" d="M343.47,842.67a1.47,1.47,0,0,1,1.37-1.86c-1.41.43-2.91-.32-4,1a5.79,5.79,0,0,1,2.64.88"/><path id="path6154" class="cls-1" d="M344.34,856.19c.29-1.34-1.34-1.93-2.38-1.86a4.83,4.83,0,0,0,2.38,1.86"/><path id="path6156" class="cls-1" d="M343.09,812.11a1.2,1.2,0,0,0-1-1.36l1,1.36"/><path id="path6158" class="cls-1" d="M345.09,828.75a2.89,2.89,0,0,0-2.5-.74l2.5.74"/><path id="path6160" class="cls-1" d="M345.47,855.45c1.33-.55,2.33-1.83,3.87-1.86a5.38,5.38,0,0,0-4.9-1.13c-2.72.82-.75,2.52,1,3"/><path id="path6162" class="cls-1" d="M345.59,848.38a5.09,5.09,0,0,1,.5-1.62,4.65,4.65,0,0,0-2.76-.24,4,4,0,0,0,2.26,1.86"/><path id="path6168" class="cls-1" d="M345.47,843.29a1.18,1.18,0,0,0-1.25-.38l1.25.38"/><path id="path6170" class="cls-1" d="M346.46,851.72c.17-.37.33-.74.5-1.12a16.91,16.91,0,0,0-2.62-.62,2.91,2.91,0,0,0,2.12,1.74"/><path id="path6172" class="cls-1" d="M346.46,846.52A2.29,2.29,0,0,0,345,845a1.3,1.3,0,0,0,1.5,1.5"/><path id="path6178" class="cls-1" d="M345.47,858.19c1.52.63,3.42-.31,4.86-.76-1.58-1.28-3.88-1.19-4.86.76"/><path id="path6180" class="cls-1" d="M347.58,862.66c.28-1.08-.69-1.9-1.63-2.12a2.25,2.25,0,0,0,1.63,2.12"/><path id="path6182" class="cls-1" d="M347.46,848.5c.15-1.33-.3-1.4-1.37-.24l1.37.24"/><path id="path6186" class="cls-1" d="M347.46,864c.31-1.24-.1-1.4-1.25-.5l1.25.5"/><path id="path6188" class="cls-1" d="M348.59,845.52c.54-1.4-1-2.34-2.13-2.49a11,11,0,0,0,2.13,2.49"/><path id="path6190" class="cls-1" d="M348,850.36c.69-.79.4-1.2-.89-1.24l.89,1.24"/><path id="path6192" class="cls-1" d="M348.33,856.19a1.78,1.78,0,0,0,0-1.36,4.48,4.48,0,0,0-1.25,1l1.25.36"/><path id="path6194" class="cls-1" d="M349,869.61c1.71-.85,2.23-4.33-.25-4.47-2.71-.15-.07,3.46.25,4.47"/><path id="path6196" class="cls-1" d="M350.71,858.19c-1.06.55-2.27.64-3.37,1.1.31,2.51,5.25,2.41,7,2.13a4,4,0,0,0-3.63-3.23"/><path id="path6198" class="cls-1" d="M351.84,863.52c.79-.09,1.58-.17,2.38-.24-.75-1.44-3.62-2.13-5-1.36a6.12,6.12,0,0,0,2.62,1.6"/><path id="path6200" class="cls-1" d="M351.33,857.57c.77-1.36-.66-2.57-2-2.12a4.12,4.12,0,0,0,2,2.12"/><path id="path6202" class="cls-1" d="M351.21,854.47l1.63-.38c-1.87-3.63-4.72-.74-1.63.38"/><path id="path6204" class="cls-1" d="M350.83,816.34c.25-.94-.17-1.14-1.25-.62l1.25.62"/><path id="path6208" class="cls-1" d="M351.59,866.74c.67-1.2,2.16-.77,3.13-.36-.66-1.93-4.3-2-3.13.36"/><path id="path6210" class="cls-1" d="M352.34,855.83h.87c0-1.07-.55-1.6-1.62-1.24l.75,1.24"/><path id="path6212" class="cls-1" d="M353.33,864.64c.13-1.12-.33-1.25-1.37-.38l1.37.38"/><path id="path6214" class="cls-1" d="M353.83,843.89c-.2-1.34-.33-2.51-1.87-1.6a1.93,1.93,0,0,0,1.87,1.6"/><path id="path6216" class="cls-1" d="M354.22,868.87c1.88-1.16-.88-2.93-2.26-2a3.83,3.83,0,0,0,2.26,2"/><path id="path6228" class="cls-1" d="M361.58,854.33a8.93,8.93,0,0,0-1-1.36c1.85-.5,1.46-2.35-.28-2.52a3,3,0,0,1-1.61-.33c-1.49-1.21-1.2.55-3.11-.5-.39,1.06.26,1.81,1.25,2.11a4.24,4.24,0,0,1-2.75.86c.34,1.27,1.24,3,2.87,2.62-2.82.51.07,1.69,1.07,1.82,1.58.21,2.74-1.69,3.55-2.7"/><path id="path6238" class="cls-1" d="M358.47,869.37c.08-.65-.69-4.75-1.75-4.36-3.12,1.14.58,3.39,1.75,4.36"/><path id="path6462" class="cls-1" d="M297.71,461.61c2.76-1.55,6-.15,7.14-4,.5-1.77-1.93-4.36-.54-5.85a1.32,1.32,0,0,1,1.08-.17c1.12,0,2.1-1.84,2.7-2.55,0,2.15,2.32,3.11,2.91,5s1.73,2.55,3.59,2.92c-1.72,1.63.8,6.19,1.39,7.9,1.54,4.45,2.44,7.07,6.26,10.14,3.46,2.78,1.93,3.66.44,7.17-.26.61,2.54,2.36,2.52,3.55,0,1.48-2.3,1.6-3.24,2.16,1.88,1.73.36,3.58,1.51,5.47.58.94,2,.68,2.63,1.6.79,1.27-.15,1.38,0,2.63.44,3.77,5.62,5.57,6,9.93.52,5.28,4.08,9.69,5.57,14.64,1.14,3.79,1.12,8.62,6.57,6.9,5.64-1.78,6,1.7,5.41,6.29-.42,3.52-.15,10.15-3.18,12.76-6.43,1.85-10.91,4.7-12.34,8.79-.52,1.5,2.17,4.42,2.79,6-3.95.14-1.24,6.38-.41,8.2.73,1.59,1.85,3.84,2.43,5.5.9,2.54-1.51,3.11-1.35,5.42.21,3.22,5.59,5.69,4.82,8.42-.47,1.65-3.31,3.11-4.69,2.43-1.66-.83-2.39,3.92-2.46,4.73A29.23,29.23,0,0,1,330,612c-2.5,3.45.74,6.06-.62,9.88-.68,1.9-2.78,2-2.08,4.44.59,2,2,3.68,2.62,5.69.34,1.16.73,2,1.08,3.18s.92,1.9,1.23,2.86c.69,2.11-1.52,5.29-3.54,2.83,1.46,1.64.12,4.93.12,6.8,0,1.3.81,3.26-.47,4.38-.94.82-1,.62-1.12,2.32-.18,2.89,2,5.82,3.41,8.2.68,1.16,1.4.77,2.17,1.85s.56,2.36-.73,1.77c.94,3.28,4.28,5,4.88,8.33a3.91,3.91,0,0,0,2.3,3c1.86.92-.06,3,.32,4.43,1,3.87,5,.52,5,4.92,0,3.49-.47,6.3,1.45,9.34.3.47,1.86,3.1.08,3.22-1.24.09-1.37.76-1.63,1.64a35.13,35.13,0,0,0-.89,4.29c-.29,1.75.31,3.32.5,5.06.26,2.39-1,2.92-1.74,2.69-1.39-.46.34,1,1,1.94a22.25,22.25,0,0,1,4,10.32c.14,1.18-.05,1.85-1.17,2s-1.44,1.74-1.47,2.54c-.1,2.84-2.56.21-3.29,3.66a7.72,7.72,0,0,0,.35,4.37c.51,1.46.57,2.88,1.37,4.26,2.11,3.65,1.7,5.11,2,7.47.37,2.82,2.91,4.34,4.06,6.79a20.72,20.72,0,0,0,2.61,4.53c.54.68,1.79,2.44,1.32,3.52-1,2.36-4.88,2.19-4.09,5.49.5,2.06-.48,7,1,8.45-1.73.54-3,1-1.43,1.35.62.14,4.18,7.11.56,6,.36,1.9,1.74,2,2.21,3.38.39,1.12-.37,2.78-.58,3.82-.71,3.29.56,5.52,2.86,7.83,1.84,1.84,2.21,5.32,2.39,8.27.16,2.55,3,4.12,4.36,6.26-1,.94-3,.5-3.37,2.12-.32,1.42,1.74,3.68,1.94,5.37.23,1.92,1.19,5.86,2.88,7,1.52,1,4.54.32,4.68,2.88.11,2.22-3.27.58.09,3.3a22.39,22.39,0,0,1,2.29,2c1.37,1.5-.19,1,.25,2s1.23,1.36,1.81,2.27c.91,1.42-.57,2.33.13,3.59.9,1.6,1,2.93,2.78,3.27,2.43.46,5.39-.46,7.25,1.46.49.51.18,3.44-.3,3.86-1.78,1.6-4.8.84-6.8.91-4.35.17.33,1.83,2.25,2,4.36.35,10.51,4.74,5.62,8.6-.51.41-1.32-.1-1.72.52-.72,1.09,1.35,2.23,1.59,3.22s1.19,1.07,1.7,1.74c.83,1.09-.57,3.28-1.81,3.33,1.77,1.28,6.7,5.73,5.27,8.26-.68,1.19-1.69,1.47-.86,3.12.23.47,0,2,.56,2.2.93.42,1.22,1.12,1.64,2.07-1.91-.29-3.5,4.74-3.41,6.16.12,1.64-.37,3.19.73,4.61.95,1.22,5.46,3.62,5,5.44-.3,1.11-1.87,1.23-2.18,2.26-.53,1.74,2.7,3.71,1.2,6.11-.78,1.25-2.38.49-2.92,1.88-.68,1.78-.13,4.62-3.4,4.1.27,1.75-.32,4.1,1.25,5.08a7.68,7.68,0,0,1,3.14,5.33c.2,2,3.48,3.5,4.62,5.11s1.84,3.78,3.73,4.63c1.3.59,2-.33,3-1,1.15-.81,2.05-.28,3.3-.27,2.71,0,3.2.28,4.91,2.89,1.2,1.82-.44,4,1.29,5,1.51.87,2.67,4.16,1.68,5.6,2.6.32,6.05,3.21,7.55,5.17,1.74,2.26,9.55.87,11.74.67,9.7-.91,19.53,1.45,30.2,5.09-2.56,0-4.89-1-7.36-1.5-4.51-.83-2.23,1.61-3.63,3.49-1.24,1.65-3.72.09-5.17,1.68-1.75,1.93-4.92,1.56-7.21,2.28,1.52,2,1.64,4.49,2.15,6.84s1.93,3.58,3,5.53c2.88,5.21-4,3.44-6.6,2.91-3.14-.65-10.28-2.61-11.48-6s5.52-1.47,2.68.82c1.62,0,1.11-1.91,1.74-2.75.45-.61,4,2.48,2.25,4.13,2.74-.93-2.25-5.12,2.89-6,.89-.15,1.09-2.56,1.09-3.18,0-1.77-3-1.4-4-2.34.08,1.84-2.59,3.52-3.87,4.46-2.17,1.59-4.11-.87-6.25.5,1.56-.29,2.77,1,3.87,1.86a4.14,4.14,0,0,1-2.62-.25,2.66,2.66,0,0,1-.38,2.62,7.22,7.22,0,0,1,3.89,2.36c-3.78,1-10.18-3.13-12.88-5.47,1.86.89,4.48.79,6.49.75-.32-1.67-4.29-1.8-4.43-5-.08-2,3.36-2.75,2.69-.3,2.19-.64,2.52-.43,4.05-2.27s5.65.9,7.81-.57c-1.38-1.79-10.54-3.09-11,0-1.23-.44-2.11-1-.12-1.75-1.18,0-5.91.11-4.88,2.36a1.78,1.78,0,0,1,2.62-.11,3.3,3.3,0,0,1-2.11,2c.65,1.08,2.64,3.71.1,3.93-1.58.14-5.07-1.84-2-2.69-1.55.48-2.75-.81-3.87-1.62a8.85,8.85,0,0,0,2.62,0,14.2,14.2,0,0,1-1.39-.74c1.73-1-.2-3.08,2.14-2.49-1.84-.67-1.84-1,0-.86a4.19,4.19,0,0,0-2.62,0,1.75,1.75,0,0,1,.48,2.6,2.86,2.86,0,0,0-2.24-1.62,2.47,2.47,0,0,1-1.49,2.37c.54-1.2.16-1.66-1.13-1.36,2.84-2.32-4-6.56-4.51-8.7a7.3,7.3,0,0,0,5.14,2.55c.86,0,4.16-3,3.24.44,1.32-.78,3.82.54,1.88-1.74.68,2.92-1.13-.93-1.13-2.37,1.47.13,2.76,1.63,3.83,2.49,2,1.59.74,3-.46,4.58,1.22-.79,2.59-.21,3.89-.12-1.71-.85-.42-2.88-2-3.79-.94-.56-4.07-2.92-1.29-3.28-1.69-1.32-2.44-3.41-4.33-4.54s-4.53-1.24-6.31-2.91a3.87,3.87,0,0,0-.74,1.25c1.57-.18,9.27,1.83,9.06,4-.17,1.75-8.07-2.33-9.19-2.22.8,1.09,2,.85,2.95,1.61s.37,2.33,2.05,2.36a5.27,5.27,0,0,0-1.25,2.48c-1.17-1.72-2.05-3.79-3.75-5.09,1.34,1.7,3.33,4,3.25,6.33-1.93-1.7-4.47-2.38-5.49-5,.86.64,1.74,1.26,2.63,1.86-.68-1.18-2.78-2-2.38-3.6-.81,0-1.7.81-2.5.62s-.63-1.36-1.64-1.54-2.43-2.85-2.62-3.79c2.2.53,3.54,2.44,5.25,3.73-1.71-1.93-2.77-4.39-4.74-6.09,2.71,2.43.65-.62-.63-.88-.12.41-.25.83-.38,1.24a6.17,6.17,0,0,1-2.74-1.48c1.75,2.82-2.42-1.83-3.07-2.41s1.19-1.06,1.47-1.1a7.35,7.35,0,0,1,1.69-.09c2.16.17-2.06-2.45,1.16-.63-1.13-.94-1-2.89.75-2.86-1.47,0-3.09-1.37-2-2.84-1.4,1.23-.11,3.86-1,5.34-1.07,1.75-5.46-4.21-6.37-4.72a9.2,9.2,0,0,1,2.62,1.36c-2.62-2.35.22-.62,1.51-.74-1.63-1.43-5.22-1.31-5.88-3.35,0,2.88-3.25-1.38-5-1.5,1.77-3.49,7.45,1.91,10.26,1.5-2.48-.57-7.61-2-8-5.1,2.05-.11,3.49,2,5.62,1.24-1.34.08-1.64-.94-1.13-2-1.22,3-7.27-1.59-3-2.36-1,.24-4.41-.84-2.44-2,2.6-1.51,4.56,1.25,6.82,2-1.65-1-3.47-2.08-4.86-3-.73-.46-1.94-.57-1.88-1.74a1.31,1.31,0,0,1,2.12-.88c-1.36-.64-3.77-5.63-1-4.21a1.94,1.94,0,0,0-2.62.24c.66.62.74,5.65.26,6.45-1.92-1.85-5-5.18-4.8-8,0-.66-2.28-1.86-1.21-2.69a4.91,4.91,0,0,1,3.63-.35c-.4-.29-6.81-1-4.47-3.12,1-.9,3.47.39,4.47.76a1.68,1.68,0,0,1-.74-2.61c-.87.11-5.8-.3-2.64-1.38-3.08,1.4-4.73-4.28-7.74-3.34-.47-3.33,4.53.57,5.36,1.36a26.28,26.28,0,0,0-1.86-2.48c2.34-.36,4.09.8,6.21,1.47.91.29,1.89,0,2.72.57,1.14.82,2.59.38,3.55,1.19a1.61,1.61,0,0,0-.24-2.11c-.54,2.74-4.71-1-4.88-2.48,1.59,1.24,3.44.87,5.26,1.36a5.13,5.13,0,0,0-2.09-.34c-1.42-.14-2.1-1.64-3.17-2.38s-1.82-.35-2.62-1.37c-.63-.8-.19-1.84-1-2.62,1.1,1.46,1.46,4.92-1.39,4.25-2.42-.57-7.47-.11-9.23-1.89,1.08-.27,1.46-1.06.75-2,2.48-.65,3.55,2.27,5.74,2.73-1.94-.37-.78-2.34.75-1.75-.28-2.26-1.58-.06-3-.81-1-.51-1.41-1.79-2.64-1.79s.52-5.82,2.62-2.48c-.37-1,0-1.65,1.13-1.61a5.6,5.6,0,0,0-.75-1.74c-.22,1.58-1.74,2.07-2.5.5a15.48,15.48,0,0,1,2.5-.62c-.82-1.14-2.56-1.36-3.69-2.1-2.35-1.52-2.9-2.3-5.68-.76a2.31,2.31,0,0,1,2.62.88,25.21,25.21,0,0,1-6.14-1.93c-3.35-1.82-1-2.62-2.23-4.78-1.21,2.38-6.1,2.71-6.25,4.85,2.27-3.63,5.93,5.47.79,1.47-3.37-2.63-.35-9.48,3.71-7.82-1.21-.18-1.6-1-.87-2,2.07,1.6,1-2.2,3.11,0-1.67-1.27.58-2.83-1.37-4,1.13,4.75-4.85.82-1.25,1-1.29-.17-2.79-.51-3.13-2,1.67.61,3.24-1.05,5.07-.71,1.57.3,1.87,2,3.44,2.07-2.26-1.53.16-2.15,1.43-2.31,1.52-.2,1.05,1.7,2.7,1.83-.9,1.21,1,3.48.48.86,3.73,1.68-1.86,4.1-4,3.11,1.43.86,6.07,1.59,7.74,1.48a2.45,2.45,0,0,1-1.49-2.36c1.08.7,2.38,1,2.87,2.38s-1,2.64-.25,4.08c2.47-.32,3.2-6.26,2.76-8.07a11,11,0,0,1-1.63,3.85c.19-2.65-3.47-9.29,1.75-9.2-1.48-.8-3,.33-3.75,1.5-.26-1.19-1.09-2.73-.74-4,.39-1.43,2-1.45,2.48-2.84.94,1.12,2.31,1.55,3.56,2.19,1.62.83,2.06-.92.72-.8a3.92,3.92,0,0,1-2.6-.94c-1.59-1-3.37-.12-4.93-1,2.74-2-3.79-4.14,1.34-4.71,3.68-.41,5.3-5.57,3.42-8.44-1.3,2.12-9.25-2.11-9.07-4.16.34-.43.78-.45,1.33-.07-2.3-2.41,2.34-4,.87-6-.42,1.51-1.79,1.54-1.85-.08-.08-2.05-1.42-1.27-2.34-3.17-.8-1.66.07-2.32.43-3.74.21-.83-1.47-3.26,1-2.68,0-1.51-1-1.71-1.82-2.71-.69-.83-.44-1.93-1-2.8-2-3.24.52-1.36,2.54-1.82-1.95-.26-4-2.41-4.49-4.22,2.78-1,4.16,1.37,5.5,3.34-.28-2.59-2.11-5.22-3.39-7.43-2.53,2.36-6.18-1.08-3.07-3.12,2-1.3,4.66-2.24,2.09-4.71,1.55,6.8-3.81,1.85-6.88,1.11-2.34-.56-.72,3.14-2,4-1.93,1.26-9.15-.85-5.24-2.61-6.86-.14-7.81-10.81-8.56-15.49-.33-2.08-1.7-6.82-.74-8.88s2.39-.25,2-2.89c-.29-1.83.47-3.57,0-5.42a19.19,19.19,0,0,0-3.46-7.19c-2-2.92-4.48-5.62-5.49-9.1-.62-2.15,0-3.67-1.67-5.52a21.18,21.18,0,0,1-3-3.85c-.68-1.23.26-1.89-.19-2.82-.82-1.65-1.71-2.82-1.46-4.76,1.44,1.06,4,1.74,4.8-.48,1-2.76-1.91-4.87-.93-7.59a1.42,1.42,0,0,0,1.63,1.48,5.77,5.77,0,0,0-.46-2c-.33-1.25.72-2.63.7-3.95,0-2.62-1.51-4.35.08-6.82,1.3-2-1.05-3.18-.08-5.56.74-1.8,2.13-4.86,2.38-6.75.62-4.57-1.34-9.41-1.12-13.91.11-2.5,2.45-4.64,2.34-6.86-.1-1.95-1.66-4.23-2.4-6-.63-1.52.35-3.55.93-4.94s-.44-3.92-.63-5.39c-.13-1.07.52-2-.26-2.93a11.23,11.23,0,0,1-2-3.28c-1-2.75-1.34-5.31-2.51-8.06-2.13-5-4.48-10.4-5.4-15.77-.47-2.72.09-3,2-4.36,1.49-1.08,0-3.47,1-4.86s-2.14-8.55-3.22-9.43c-1.35-1.11-3.07-4.31-2.12-6.08,1.32-2.47,1.51-4.67,2.35-7.31.54-1.68-.69-4.62-.67-6.46.05-3,2.33-4.8,1.16-7.84-1.76-4.54.67-10.19.71-15,0-4.2-2.61-7.67-2.41-11.67.12-2.29,2.58-2.69,2.5-4.89-.12-2.93-2.25-5.8-2.87-8.7s-.14-6-.58-9c-.22-1.51-.78-2.54-.36-4.11a8.69,8.69,0,0,0,.6-4c-.34-1.61-2.79-.64-3.2-2.42s.21-3.9.38-5.76c2.95,2.62,2.8-5.93,2.77-7.19-.16-7.28,1.33-15.65-1.4-22.49-2.92-7.32-1-15.37-3.74-22.83a62,62,0,0,1-3-10.09c-.37-2.05.6-6.2-1.8-7.3"/><path id="path6464" class="cls-1" d="M351,870l-.36-1.38q2.55.24.36,1.38"/><path id="path6470" class="cls-1" d="M409.45,962.73l-.12-1.36a5.82,5.82,0,0,1,.75,1.36h-.63"/><path id="path6472" class="cls-1" d="M444.57,978.37c-.9-1.16-2.28-3.64-1.25-5.09.35,1.67,2.89,1.53,2.62-.26-.15-.95-3.08-1.93-3.87-2.22,1.43-1.33,3.31.29,4.78.63,3.22.74,1.77-3,2.75-4.41s4,1.89,5.08,2.17c2,.5,3.51-1.8,5.31-.69,2,1.22,2.11,3.94,3.33,5.71a46.24,46.24,0,0,1,4.08,7.95c2.73,6.32,6.78,12.18,9,18.68-1.22-.73-2.66-.88-3.87-1.61a5.81,5.81,0,0,0,2.5,1.49c-1.81,1.91-6.15.72-8.22,0-1.06-.39-2.27-2.15-3.46-1.8-1.58.46-1.86.88-3.2-.39.3.53.59,1.07.88,1.61-.92-1-5,1-3.63-1.75-.24,1.33-4.58,2-5.74,1.5a25.31,25.31,0,0,1,2.5-1.86c-1.54-.89-3.67.93-5.14,1.24a3.52,3.52,0,0,0-1.23-2.48c-.57,3.12-2.8-.53-3.89-1.12,1.73,2.34-1.76,1.49-2.95,1.29-.95-.16-2.07.86-2.92.57s-1.2-2-2-2.48c1.51-.11,2.57,1.1,4,1.36a1.45,1.45,0,0,0-1.75-1.48,2.25,2.25,0,0,1,2.63.62c-2.84-2.68,5.51.15,6.36-.92.72-.9-.07-2.38,2.14-1.77,1.51.41,0,4.56,2.49,3.93a2.41,2.41,0,0,1-1.13-2.48c2.18,0,4.33,2.7,6.51,1.74-2.09-1.15-4.39-1.76-6.31-3.24-1.67-1.28-3.94-.27-5.2-2.35,3.52.57,7.46,1.62,10.38,3.73-1.1-.69-1.46-2.2.35-1.92,1.62.25,2.78,1.88,4,2.78a4.94,4.94,0,0,0-2-2.24c1.64-.6,3.39,1.6,4.5.87,1.76-1.15,4.28,1.6,2.86,3.35a1.49,1.49,0,0,1,2.38-.74c-1.5-1.56-.16-1.64,1.13-1.48-4.6-3.92-13.92-2.6-17.44-8.12-2.5-3.91,7.06-3.08,5.91-6.63-1.43-4.42-10.51,2.86-13.34-1.65"/></g><g id="ec"><path id="path6588" class="cls-1" d="M1.89,195.28c1.54-.32,1.91-2.9.23-3.29-3-.72-1.89,2.45-.23,3.29"/><path id="path6590" class="cls-1" d="M.52,187.83c2.17.42,2.21,1.72,2.82,3.49.76,2.22,2.8,3.69,3.55,6C4.48,198-.17,201.21,4,203.09c2.27,1,7-.8,7.41-3.42.27-1.82-2.46-1.91-2.23-3.41.36-2.33-1.57-3.12-2.65-4.81-1.94-3-1.77-6.07-6-3.62"/><path id="path6592" class="cls-1" d="M13.76,193.54c1.47-1.72-.8-3.1-2.37-3.1-3.61,0,2.23,3,2.37,3.1"/><path id="path6594" class="cls-1" d="M15.39,184c.94-1.22.69-1.63-.75-1.24l.75,1.24"/><path id="path6596" class="cls-1" d="M17.39,199.51c2.58-.7,2.54-4.54-.5-4.11s-2.36,4.06.5,4.11"/><path id="path6598" class="cls-1" d="M16,208.06a6.25,6.25,0,0,0,1-1.24c-1.49-1.33-2.49.69-1,1.24"/><path id="path6600" class="cls-1" d="M28,202.23c1.42-.12,4-2.58,2.88-4.1-1.32.25-4.16,2.57-2.88,4.1"/><path id="path4798" class="cls-1" d="M156.86,227.31a2.2,2.2,0,0,0-.12-2.49,3.17,3.17,0,0,0,.12,2.49"/><path id="path6602" class="cls-1" d="M154.87,227.69a4.25,4.25,0,0,0-3.36,2.47c-.19.47.24,3.69,1.25,2.89a6.15,6.15,0,0,0,1-2.4c0-.71,2-1.42,2.47-2.22l-1.37-.74"/><path id="path6790" class="cls-1" d="M142.12,220.6c2.67.85,2.72-3.12,2.57-4.72a13.27,13.27,0,0,0-1.12-3.45c-.74-2,1.54-3.54.73-5.49-.89-2.14-3.28-5,.69-5.39a2.52,2.52,0,0,0,2.62-2.42c.42-2.08,1.54-1.61,3.25-1.86-2.9-.28-3.19-4-1.44-5.78,2.68-2.66,4.48-4.53,4.7-8.49.07-1.14-1.63-6.27-.56-6.91s5.88-4.21,5.93-.79c-.75-2.05,1.81-3,3.3-3.49s4.9-2.6,5.2-.62a19.34,19.34,0,0,1,2.37-4.72c3.52,3.2,8.9,9.08,14.1,9,1.62,0,1.69,2,3.24,2.43,2.07.65.25,4.77,3.86,4.73,2.71,0,4.83,1.28,7.67,1.32.94,0,3,1.2,3.4-.45.13-.52-.83-1-.12-1.38,2.62-1.28,4.59,1,6.1,2.77,2.33,2.8,5.48,2.87,8.37,4.76a11,11,0,0,1-4.5-.13c-.18,1,3.09,4.14,3.71,5,1.87,2.48.52,5,1.79,7.94a2.73,2.73,0,0,1-2.5-.86,38.1,38.1,0,0,1-16,24.37c-4,2.78-9.23,3.56-13.67,5.51a12.21,12.21,0,0,0-5,4.33,9.54,9.54,0,0,0-1.42,1.8c-.29,1,.35,1.62-.5,2.6-.85-4-2.61,3.8-2.83,4.2-1.37,2.39-2.7,5.78-2.55,8.58.18,3.35-2.29,3.23-3.13,5.86s-.68,3.19-3.26,3.12c-3.12-.09-3.89-3.52-4.87-5.78-1.27-2.92-2.68-.65-4.61-1.7-1.35-.73-2.84-3.5-4.55-1.8-2.32,2.3-4.75,1.67-2.32-1.54a2,2,0,0,1-.85-3.58c.77-.63,2.18-.23,3-.91,1.37-1.08-.62-7.76-2.19-8.43,1.95-1,3.56-.47,4.75-2.69,1-1.93,1.25-4.14,1.88-6.2.78-2.54.83-2.66,0-5s-1.08-4.46.5-6.47c-2.8,1.35-1,4.44-1.43,6.73-.68,3.75-3.29.41-.57.22-1.36-.09-1.47-1.22-1-2.22-.9.91-4.06,4.71-3.37,6.08-2.06-1.4-3.57-3.62-5.77-4.8-1.54-.82-3.29-1.29-3.6-3.28"/></g><g id="tt"><g id="tt-"><path id="path6114" class="cls-1" d="M398.83,38.09c1.46-2.17,5.39-1.94,6.29-4.5.55-1.57.2-5.19-2.16-5.06,1.67-1.68,4.51-2,6.75-2.22,4.56-.42.7,2.42,1,5.07.27,2.46,1.79,4.73-1.42,5.89-3.38,1.23-7.09-.5-10.45.82"/><path id="path6120" class="cls-1" d="M414.45,21.7a3.82,3.82,0,0,1,3.12-2.86c.1,1.68-2.07,2.1-3.12,2.86"/></g></g><g id="gd"><path id="gd-" class="cls-1" d="M403.44,8.78c-1.33-1.26-.21-2.87,1.13-3.47a2.77,2.77,0,0,1-1.13,3.47"/></g><g id="aw"><path id="aw-" class="cls-1" d="M294.59,1.58,294,.34c1.38-.54,2,1.45,2.14,2.36a7.88,7.88,0,0,1-1.51-1.12"/></g></g></g></svg>